<svg version="1.1" id="Layer_1" xmlns="http://www.w3.org/2000/svg" xmlns:xlink="http://www.w3.org/1999/xlink" x="0px" y="0px"
	 viewBox="0 0 48 48" enable-background="new 0 0 48 48" xml:space="preserve">
<g>
	<path fill="#E64C3C" d="M8.7,13.9v4.8c0,1.3,1.1,2.4,2.4,2.4c1.3,0,2.4-1.1,2.4-2.4v-4.8c0-1.3-1.1-2.4-2.4-2.4
		C9.7,11.5,8.7,12.6,8.7,13.9z M17.3,13.9v4.8c0,1.3,1.1,2.4,2.4,2.4c1.3,0,2.4-1.1,2.4-2.4v-4.8c0-1.3-1.1-2.4-2.4-2.4
		C18.4,11.5,17.3,12.6,17.3,13.9z M25.9,13.9v4.8c0,1.3,1.1,2.4,2.4,2.4c1.3,0,2.4-1.1,2.4-2.4v-4.8c0-1.3-1.1-2.4-2.4-2.4
		C27,11.5,25.9,12.6,25.9,13.9z M34.5,13.9v4.8c0,1.3,1.1,2.4,2.4,2.4c1.3,0,2.4-1.1,2.4-2.4v-4.8c0-1.3-1.1-2.4-2.4-2.4
		C35.6,11.5,34.5,12.6,34.5,13.9z M1,43.2C1,45.3,2.7,47,4.8,47h38.3c2.1,0,3.8-1.7,3.8-3.8V4.8C47,2.7,45.3,1,43.2,1H4.8
		C2.7,1,1,2.7,1,4.8L1,43.2L1,43.2z M7.9,8.7h32.2c1.2,0,2.1,0.9,2.1,2.1v14.9c0,1.2-0.9,2.1-2.1,2.1h-2.7v3.6
		c0,1.2-0.9,2.1-2.1,2.1h-5.6v3.6c0,1.2-0.9,2.1-2.1,2.1h-7.3c-1.2,0-2.1-0.9-2.1-2.1v-3.6h-5.6c-1.2,0-2.1-0.9-2.1-2.1v-3.6H7.9
		c-1.2,0-2.1-0.9-2.1-2.1V10.8C5.8,9.6,6.7,8.7,7.9,8.7z"/>
</g>
</svg>
