<svg version="1.1" id="logo" xmlns="http://www.w3.org/2000/svg" xmlns:xlink="http://www.w3.org/1999/xlink" x="0px" y="0px"
	 width="50px" height="50px" viewBox="0 0 50 50" style="enable-background:new 0 0 50 50;" xml:space="preserve">
<g id="huawei" transform="matrix(1.25,0,0,-1.25,0,1772.5)">
	<g id="outlines">
		<defs>
			<path id="clip_path" d="M16.5,1387.7c0,0-4.7-3.5-6.6-3.9c-2.2-0.5-4.4,1.2-5.7,3.5L16.5,1387.7z M22.7,1412.6
				c0,0-3.6-4.6-1.8-21.9c0,0,6.3,9,7.5,14.2c0,0,0.6,2.2,0,3.8c0,0-0.8,2.9-3.9,3.6C24.6,1412.2,23.7,1412.5,22.7,1412.6z
				 M36.4,1401.1c0.2,3.3-3.1,6.4-3.1,6.4s-6.3-7.7-10.8-17.7c0,0,8.7,4.2,12,7.5C34.4,1397.2,36.3,1398.7,36.4,1401.1z
				 M38.8,1397.7c0,0-10.5-5.7-15.6-9.2c0,0,9.3,0,9.5,0c0,0,0.9,0,2,0.5c0,0,2.5,0.8,3.8,3.6C38.5,1392.7,39.7,1395,38.8,1397.7z
				 M29.9,1383.7c-2,0.6-6.6,4-6.6,4l12.3-0.4C33,1382.7,29.9,1383.7,29.9,1383.7z M15.2,1412.2c-3.1-0.8-3.9-3.7-3.9-3.7
				c-0.6-1.8,0-3.8,0-3.8c1.2-5.2,7.5-14.2,7.5-14.2c1.8,17.4-1.7,21.9-1.7,21.9C16.6,1412.6,15.2,1412.2,15.2,1412.2z M5.4,1397.2
				c3.3-3.2,12-7.5,12-7.5c-4.5,10.1-10.8,17.7-10.8,17.7s-3.4-3.2-3.1-6.4C3.6,1398.7,5.4,1397.2,5.4,1397.2z M1.4,1392.5
				c1.3-2.7,3.7-3.5,3.7-3.5c1.1-0.5,2.3-0.5,2.3-0.5c0.2,0,9.3,0,9.3,0c-5.1,3.5-15.6,9.1-15.6,9.1
				C0.2,1394.8,1.4,1392.5,1.4,1392.5"/>
		</defs>
		<radialGradient id="clip_path_1" cx="19.9316" cy="1398.1041" r="21.2677" gradientUnits="userSpaceOnUse">
			<stop  offset="0" style="stop-color:#FF0000"/>
			<stop  offset="0" style="stop-color:#FB0100"/>
			<stop  offset="0" style="stop-color:#FF0A0A"/>
			<stop  offset="1" style="stop-color:#A61500"/>
		</radialGradient>
		<use xlink:href="#clip_path"  style="overflow:visible;fill:url(#clip_path_1);"/>
		<clipPath id="clip_path_2">
			<use xlink:href="#clip_path"  style="overflow:visible;"/>
		</clipPath>
	</g>
</g>
</svg>
