<?xml version="1.0" encoding="utf-8"?>
<!-- Generator: Adobe Illustrator 18.1.1, SVG Export Plug-In . SVG Version: 6.00 Build 0)  -->
<svg version="1.1" id="Layer_1" xmlns="http://www.w3.org/2000/svg" xmlns:xlink="http://www.w3.org/1999/xlink" x="0px" y="0px"
	 width="60px" height="60px" viewBox="0 0 60 60" style="enable-background:new 0 0 60 60;" xml:space="preserve">
<style type="text/css">
	.st0{clip-path:url(#SVGID_2_);}
	.st1{fill:#7D1F1A;}
	.st2{fill:#7D1E1D;}
	.st3{fill:#801E1C;}
	.st4{fill:#81221C;}
	.st5{fill:#84211C;}
	.st6{fill:#87211C;}
	.st7{fill:#8A211C;}
	.st8{fill:#8C211D;}
	.st9{fill:#8E221D;}
	.st10{fill:#90221D;}
	.st11{fill:#93221E;}
	.st12{fill:#96231F;}
	.st13{fill:#982320;}
	.st14{fill:#9B2521;}
	.st15{fill:#9D2421;}
	.st16{fill:#A02322;}
	.st17{fill:#A22322;}
	.st18{fill:#A62323;}
	.st19{fill:#A82323;}
	.st20{fill:#AA2724;}
	.st21{fill:#AD2724;}
	.st22{fill:#AF2924;}
	.st23{fill:#B22925;}
	.st24{fill:#B32925;}
	.st25{fill:#B62926;}
	.st26{fill:#B82926;}
	.st27{fill:#BC2826;}
	.st28{fill:#BF2826;}
	.st29{fill:#C02826;}
	.st30{fill:#C42827;}
	.st31{fill:#C52827;}
	.st32{fill:#C92727;}
	.st33{fill:#CB2727;}
	.st34{fill:#CE2827;}
	.st35{fill:#D02927;}
	.st36{fill:#D22927;}
	.st37{fill:#D52927;}
	.st38{fill:#D82927;}
	.st39{fill:#DB2A27;}
	.st40{fill:#DA3127;}
	.st41{fill:#DB3227;}
	.st42{fill:#DB3527;}
	.st43{fill:#DB3727;}
	.st44{fill:#DB3928;}
	.st45{fill:#DD3A28;}
	.st46{fill:#DD3E2A;}
	.st47{fill:#DD412D;}
	.st48{fill:#DC432D;}
	.st49{fill:#DC432F;}
	.st50{fill:#DC4632;}
	.st51{fill:#DD4832;}
	.st52{fill:#DD4A34;}
	.st53{fill:#DD4C37;}
	.st54{fill:#E04F37;}
	.st55{fill:#E04F39;}
	.st56{fill:#E0513C;}
	.st57{fill:#E0543C;}
	.st58{fill:#E0583F;}
	.st59{fill:#E05A40;}
	.st60{fill:#E25A41;}
	.st61{fill:#E25C44;}
	.st62{fill:#E25E46;}
	.st63{fill:#E2614A;}
	.st64{fill:#E2624C;}
	.st65{fill:#E2654C;}
	.st66{fill:#E2664F;}
	.st67{fill:#E5684F;}
	.st68{fill:#E66B54;}
	.st69{fill:#E56E54;}
	.st70{fill:#E56E58;}
	.st71{fill:#E57059;}
	.st72{fill:#E67359;}
	.st73{fill:#E7735C;}
	.st74{fill:#E7755E;}
	.st75{fill:#E7785E;}
	.st76{fill:#E77861;}
	.st77{fill:#E77A61;}
	.st78{fill:#E77A62;}
	.st79{fill:#E77D65;}
	.st80{fill:#E77F68;}
	.st81{fill:#E7816A;}
	.st82{fill:#E7836D;}
	.st83{fill:#EA856F;}
	.st84{fill:#EA8872;}
	.st85{fill:#EA8B74;}
	.st86{fill:#EA8B78;}
	.st87{fill:#EA8E78;}
	.st88{fill:#ED8F7B;}
	.st89{fill:#ED937E;}
	.st90{fill:#ED9380;}
	.st91{fill:#ED9881;}
	.st92{fill:#ED9885;}
	.st93{fill:#ED9B86;}
	.st94{fill:#ED9D89;}
	.st95{fill:#EFA08B;}
	.st96{fill:#EFA28B;}
	.st97{fill:#EFA28E;}
	.st98{fill:#EEA793;}
</style>
<g id="g3067" transform="matrix(1.25,0,0,-1.25,0,1772.5)">
	<g>
		<defs>
			<path id="SVGID_1_" d="M19.9,1381.9c0,0-5.6-4.1-7.8-4.7c-2.7-0.6-5.2,1.5-6.8,4.2L19.9,1381.9z M27.3,1411.6
				c0,0-4.2-5.5-2.1-26.1c0,0,7.5,10.7,8.9,16.9c0,0,0.7,2.7,0,4.5c0,0-0.9,3.4-4.6,4.3C29.5,1411.2,28.5,1411.4,27.3,1411.6z
				 M43.5,1397.9c0.3,3.9-3.7,7.6-3.7,7.6s-7.5-9.1-12.9-21.1c0,0,10.3,5,14.3,8.9C41.2,1393.3,43.4,1395.1,43.5,1397.9z
				 M46.4,1393.9c0,0-12.5-6.8-18.6-10.9c0,0,11.1,0,11.3,0c0,0,1.1,0,2.4,0.6c0,0,3,0.9,4.5,4.3
				C46.1,1387.9,47.5,1390.6,46.4,1393.9z M35.9,1377.2c-2.4,0.7-7.8,4.7-7.8,4.7l14.6-0.5C39.5,1376,35.9,1377.2,35.9,1377.2z
				 M18.4,1411.2c-3.7-1-4.6-4.3-4.6-4.3c-0.7-2.1,0-4.5,0-4.5c1.4-6.2,8.9-16.9,8.9-16.9c2.1,20.6-2.1,26.1-2.1,26.1
				C20,1411.5,18.4,1411.2,18.4,1411.2z M6.7,1393.3c4-3.9,14.3-8.9,14.3-8.9c-5.4,12-12.9,21.1-12.9,21.1s-4-3.8-3.7-7.6
				C4.6,1395,6.7,1393.3,6.7,1393.3z M1.9,1387.7c1.5-3.2,4.4-4.2,4.4-4.2c1.3-0.6,2.7-0.6,2.7-0.6c0.2,0,11.1,0,11.1,0
				c-6,4.2-18.6,10.9-18.6,10.9C0.5,1390.5,1.9,1387.7,1.9,1387.7"/>
		</defs>
		<clipPath id="SVGID_2_">
			<use xlink:href="#SVGID_1_"  style="overflow:visible;"/>
		</clipPath>
		<g id="g3069" class="st0">
			<path id="path3075" class="st1" d="M68.6,1406.4c0,22.2-17.9,40.2-40.1,40.2c-22.1,0-40.1-18-40.1-40.2s17.9-40.2,40.1-40.2
				C50.7,1366.2,68.6,1384.2,68.6,1406.4z M68.3,1406.4c0-22-17.8-39.9-39.8-39.9s-39.8,17.9-39.8,39.9c0,22,17.8,39.9,39.8,39.9
				S68.3,1428.4,68.3,1406.4"/>
			<path id="path3077" class="st1" d="M68.5,1406.4c0,22.1-17.9,40-39.9,40c-22,0-39.9-17.9-39.9-40c0-22.1,17.9-40,39.9-40
				C50.6,1366.4,68.5,1384.3,68.5,1406.4z M68.2,1406.4c0-21.9-17.7-39.7-39.6-39.7c-21.9,0-39.6,17.8-39.6,39.7
				c0,21.9,17.7,39.7,39.6,39.7C50.4,1446.1,68.2,1428.4,68.2,1406.4"/>
			<path id="path3079" class="st1" d="M68.3,1406.4c0,22-17.8,39.9-39.8,39.9s-39.8-17.9-39.8-39.9c0-22,17.8-39.9,39.8-39.9
				S68.3,1384.4,68.3,1406.4z M68,1406.4c0-21.8-17.7-39.6-39.5-39.6c-21.8,0-39.5,17.7-39.5,39.6c0,21.8,17.7,39.6,39.5,39.6
				C50.3,1446,68,1428.3,68,1406.4"/>
			<path id="path3081" class="st1" d="M68.2,1406.4c0,21.9-17.7,39.7-39.6,39.7c-21.9,0-39.6-17.8-39.6-39.7
				c0-21.9,17.7-39.7,39.6-39.7C50.4,1366.7,68.2,1384.5,68.2,1406.4z M67.8,1406.4c0-21.8-17.6-39.4-39.3-39.4
				c-21.7,0-39.3,17.6-39.3,39.4c0,21.8,17.6,39.4,39.3,39.4C50.2,1445.8,67.8,1428.2,67.8,1406.4"/>
			<path id="path3083" class="st1" d="M68,1406.4c0,21.8-17.7,39.6-39.5,39.6c-21.8,0-39.5-17.7-39.5-39.6
				c0-21.8,17.7-39.6,39.5-39.6C50.3,1366.9,68,1384.6,68,1406.4z M67.7,1406.4c0-21.7-17.5-39.2-39.1-39.2
				c-21.6,0-39.1,17.6-39.1,39.2c0,21.7,17.5,39.2,39.1,39.2C50.2,1445.7,67.7,1428.1,67.7,1406.4"/>
			<path id="path3085" class="st1" d="M67.8,1406.4c0,21.8-17.6,39.4-39.3,39.4c-21.7,0-39.3-17.6-39.3-39.4
				c0-21.8,17.6-39.4,39.3-39.4C50.2,1367,67.8,1384.7,67.8,1406.4z M67.5,1406.4c0-21.6-17.5-39.1-39-39.1c-21.5,0-39,17.5-39,39.1
				s17.5,39.1,39,39.1C50.1,1445.5,67.5,1428,67.5,1406.4"/>
			<path id="path3087" class="st1" d="M67.7,1406.4c0,21.7-17.5,39.2-39.1,39.2c-21.6,0-39.1-17.6-39.1-39.2s17.5-39.2,39.1-39.2
				C50.2,1367.2,67.7,1384.8,67.7,1406.4z M67.4,1406.4c0-21.5-17.4-38.9-38.8-38.9c-21.4,0-38.8,17.4-38.8,38.9
				s17.4,38.9,38.8,38.9C50,1445.4,67.4,1427.9,67.4,1406.4"/>
			<path id="path3089" class="st1" d="M67.5,1406.4c0,21.6-17.5,39.1-39,39.1c-21.5,0-39-17.5-39-39.1s17.5-39.1,39-39.1
				C50.1,1367.3,67.5,1384.8,67.5,1406.4z M67.2,1406.4c0-21.4-17.3-38.8-38.7-38.8c-21.4,0-38.7,17.4-38.7,38.8
				c0,21.4,17.3,38.8,38.7,38.8C49.9,1445.2,67.2,1427.8,67.2,1406.4"/>
			<path id="path3091" class="st1" d="M67.4,1406.4c0,21.5-17.4,38.9-38.8,38.9c-21.4,0-38.8-17.4-38.8-38.9s17.4-38.9,38.8-38.9
				C50,1367.5,67.4,1384.9,67.4,1406.4z M67.1,1406.4c0-21.3-17.2-38.6-38.5-38.6c-21.3,0-38.5,17.3-38.5,38.6
				c0,21.3,17.2,38.6,38.5,38.6C49.8,1445,67.1,1427.8,67.1,1406.4"/>
			<path id="path3093" class="st1" d="M67.2,1406.4c0,21.4-17.3,38.8-38.7,38.8c-21.4,0-38.7-17.4-38.7-38.8
				c0-21.4,17.3-38.8,38.7-38.8C49.9,1367.7,67.2,1385,67.2,1406.4z M66.9,1406.4c0-21.2-17.2-38.5-38.4-38.5
				c-21.2,0-38.4,17.2-38.4,38.5c0,21.2,17.2,38.5,38.4,38.5C49.7,1444.9,66.9,1427.7,66.9,1406.4"/>
			<path id="path3095" class="st1" d="M67.1,1406.4c0,21.3-17.2,38.6-38.5,38.6c-21.3,0-38.5-17.3-38.5-38.6
				c0-21.3,17.2-38.6,38.5-38.6C49.8,1367.8,67.1,1385.1,67.1,1406.4z M66.8,1406.4c0-21.2-17.1-38.3-38.2-38.3
				c-21.1,0-38.2,17.1-38.2,38.3c0,21.2,17.1,38.3,38.2,38.3C49.6,1444.7,66.8,1427.6,66.8,1406.4"/>
			<path id="path3097" class="st1" d="M66.9,1406.4c0,21.2-17.2,38.5-38.4,38.5c-21.2,0-38.4-17.2-38.4-38.5
				c0-21.2,17.2-38.5,38.4-38.5C49.7,1368,66.9,1385.2,66.9,1406.4z M66.6,1406.4c0-21.1-17-38.1-38-38.1c-21,0-38,17.1-38,38.1
				s17,38.1,38,38.1C49.6,1444.6,66.6,1427.5,66.6,1406.4"/>
			<path id="path3099" class="st1" d="M66.8,1406.4c0,21.2-17.1,38.3-38.2,38.3c-21.1,0-38.2-17.1-38.2-38.3
				c0-21.2,17.1-38.3,38.2-38.3C49.6,1368.1,66.8,1385.3,66.8,1406.4z M66.4,1406.4c0-21-17-38-37.9-38c-20.9,0-37.9,17-37.9,38
				c0,21,17,38,37.9,38C49.5,1444.4,66.4,1427.4,66.4,1406.4"/>
			<path id="path3101" class="st1" d="M66.6,1406.4c0,21.1-17,38.1-38,38.1c-21,0-38-17.1-38-38.1s17-38.1,38-38.1
				C49.6,1368.3,66.6,1385.4,66.6,1406.4z M66.3,1406.4c0-20.9-16.9-37.8-37.7-37.8c-20.8,0-37.7,16.9-37.7,37.8
				c0,20.9,16.9,37.8,37.7,37.8C49.4,1444.3,66.3,1427.3,66.3,1406.4"/>
			<path id="path3103" class="st1" d="M66.4,1406.4c0,21-17,38-37.9,38c-20.9,0-37.9-17-37.9-38c0-21,17-38,37.9-38
				C49.5,1368.4,66.4,1385.4,66.4,1406.4z M66.1,1406.4c0-20.8-16.8-37.7-37.6-37.7c-20.8,0-37.6,16.9-37.6,37.7
				s16.8,37.7,37.6,37.7C49.3,1444.1,66.1,1427.2,66.1,1406.4"/>
			<path id="path3105" class="st1" d="M66.3,1406.4c0,20.9-16.9,37.8-37.7,37.8c-20.8,0-37.7-16.9-37.7-37.8
				c0-20.9,16.9-37.8,37.7-37.8C49.4,1368.6,66.3,1385.5,66.3,1406.4z M66,1406.4c0-20.7-16.8-37.5-37.4-37.5s-37.4,16.8-37.4,37.5
				c0,20.7,16.8,37.5,37.4,37.5S66,1427.1,66,1406.4"/>
			<path id="path3107" class="st1" d="M66.1,1406.4c0,20.8-16.8,37.7-37.6,37.7c-20.8,0-37.6-16.9-37.6-37.7s16.8-37.7,37.6-37.7
				C49.3,1368.8,66.1,1385.6,66.1,1406.4z M65.8,1406.4c0-20.6-16.7-37.4-37.3-37.4c-20.6,0-37.3,16.7-37.3,37.4
				c0,20.6,16.7,37.4,37.3,37.4C49.1,1443.8,65.8,1427.1,65.8,1406.4"/>
			<path id="path3109" class="st1" d="M66,1406.4c0,20.7-16.8,37.5-37.4,37.5s-37.4-16.8-37.4-37.5c0-20.7,16.8-37.5,37.4-37.5
				S66,1385.7,66,1406.4z M65.7,1406.4c0-20.5-16.6-37.2-37.1-37.2c-20.5,0-37.1,16.7-37.1,37.2c0,20.5,16.6,37.2,37.1,37.2
				C49,1443.6,65.7,1427,65.7,1406.4"/>
			<path id="path3111" class="st1" d="M65.8,1406.4c0,20.6-16.7,37.4-37.3,37.4c-20.6,0-37.3-16.7-37.3-37.4
				c0-20.6,16.7-37.4,37.3-37.4C49.1,1369.1,65.8,1385.8,65.8,1406.4z M65.5,1406.4c0-20.5-16.5-37-37-37c-20.4,0-37,16.6-37,37
				s16.5,37,37,37C49,1443.5,65.5,1426.9,65.5,1406.4"/>
			<path id="path3113" class="st1" d="M65.7,1406.4c0,20.5-16.6,37.2-37.1,37.2c-20.5,0-37.1-16.7-37.1-37.2
				c0-20.5,16.6-37.2,37.1-37.2C49,1369.2,65.7,1385.9,65.7,1406.4z M65.3,1406.4c0-20.4-16.5-36.9-36.8-36.9
				c-20.3,0-36.8,16.5-36.8,36.9s16.5,36.9,36.8,36.9C48.9,1443.3,65.3,1426.8,65.3,1406.4"/>
			<path id="path3115" class="st1" d="M65.5,1406.4c0,20.5-16.5,37-37,37c-20.4,0-37-16.6-37-37s16.5-37,37-37
				C49,1369.4,65.5,1386,65.5,1406.4z M65.2,1406.4c0-20.3-16.4-36.7-36.6-36.7c-20.2,0-36.6,16.4-36.6,36.7s16.4,36.7,36.6,36.7
				C48.8,1443.2,65.2,1426.7,65.2,1406.4"/>
			<path id="path3117" class="st1" d="M65.3,1406.4c0,20.4-16.5,36.9-36.8,36.9c-20.3,0-36.8-16.5-36.8-36.9
				c0-20.4,16.5-36.9,36.8-36.9C48.9,1369.5,65.3,1386.1,65.3,1406.4z M65,1406.4c0-20.2-16.3-36.6-36.5-36.6
				c-20.1,0-36.5,16.4-36.5,36.6c0,20.2,16.3,36.6,36.5,36.6C48.7,1443,65,1426.6,65,1406.4"/>
			<path id="path3119" class="st1" d="M65.2,1406.4c0,20.3-16.4,36.7-36.6,36.7c-20.2,0-36.6-16.4-36.6-36.7s16.4-36.7,36.6-36.7
				C48.8,1369.7,65.2,1386.1,65.2,1406.4z M64.9,1406.4c0-20.1-16.3-36.4-36.3-36.4c-20.1,0-36.3,16.3-36.3,36.4
				c0,20.1,16.3,36.4,36.3,36.4C48.6,1442.8,64.9,1426.5,64.9,1406.4"/>
			<path id="path3121" class="st1" d="M65,1406.4c0,20.2-16.3,36.6-36.5,36.6c-20.1,0-36.5-16.4-36.5-36.6
				c0-20.2,16.3-36.6,36.5-36.6C48.7,1369.9,65,1386.2,65,1406.4z M64.7,1406.4c0-20-16.2-36.3-36.2-36.3c-20,0-36.2,16.2-36.2,36.3
				s16.2,36.3,36.2,36.3C48.5,1442.7,64.7,1426.5,64.7,1406.4"/>
			<path id="path3123" class="st1" d="M64.9,1406.4c0,20.1-16.3,36.4-36.3,36.4c-20.1,0-36.3-16.3-36.3-36.4
				c0-20.1,16.3-36.4,36.3-36.4C48.6,1370,64.9,1386.3,64.9,1406.4z M64.6,1406.4c0-19.9-16.1-36.1-36-36.1s-36,16.2-36,36.1
				s16.1,36.1,36,36.1S64.6,1426.4,64.6,1406.4"/>
			<path id="path3125" class="st1" d="M64.7,1406.4c0,20-16.2,36.3-36.2,36.3c-20,0-36.2-16.2-36.2-36.3s16.2-36.3,36.2-36.3
				C48.5,1370.2,64.7,1386.4,64.7,1406.4z M64.4,1406.4c0-19.9-16.1-35.9-35.9-35.9c-19.8,0-35.9,16.1-35.9,35.9
				c0,19.9,16.1,35.9,35.9,35.9C48.3,1442.4,64.4,1426.3,64.4,1406.4"/>
			<path id="path3127" class="st1" d="M64.6,1406.4c0,19.9-16.1,36.1-36,36.1s-36-16.2-36-36.1s16.1-36.1,36-36.1
				S64.6,1386.5,64.6,1406.4z M64.2,1406.4c0-19.8-16-35.8-35.7-35.8c-19.7,0-35.7,16-35.7,35.8s16,35.8,35.7,35.8
				C48.3,1442.2,64.2,1426.2,64.2,1406.4"/>
			<path id="path3129" class="st1" d="M64.4,1406.4c0,19.9-16.1,35.9-35.9,35.9c-19.8,0-35.9-16.1-35.9-35.9
				c0-19.9,16.1-35.9,35.9-35.9C48.3,1370.5,64.4,1386.6,64.4,1406.4z M64.1,1406.4c0-19.7-15.9-35.6-35.5-35.6
				c-19.6,0-35.5,16-35.5,35.6c0,19.7,15.9,35.6,35.5,35.6C48.2,1442.1,64.1,1426.1,64.1,1406.4"/>
			<path id="path3131" class="st1" d="M64.2,1406.4c0,19.8-16,35.8-35.7,35.8c-19.7,0-35.7-16-35.7-35.8s16-35.8,35.7-35.8
				C48.3,1370.6,64.2,1386.7,64.2,1406.4z M63.9,1406.4c0-19.6-15.8-35.5-35.4-35.5c-19.5,0-35.4,15.9-35.4,35.5
				c0,19.6,15.8,35.5,35.4,35.5C48.1,1441.9,63.9,1426,63.9,1406.4"/>
			<path id="path3133" class="st1" d="M64.1,1406.4c0,19.7-15.9,35.6-35.5,35.6c-19.6,0-35.5-16-35.5-35.6
				c0-19.7,15.9-35.6,35.5-35.6C48.2,1370.8,64.1,1386.7,64.1,1406.4z M63.8,1406.4c0-19.5-15.8-35.3-35.2-35.3
				c-19.5,0-35.2,15.8-35.2,35.3s15.8,35.3,35.2,35.3C48,1441.7,63.8,1425.9,63.8,1406.4"/>
			<path id="path3135" class="st1" d="M63.9,1406.4c0,19.6-15.8,35.5-35.4,35.5c-19.5,0-35.4-15.9-35.4-35.5
				c0-19.6,15.8-35.5,35.4-35.5C48.1,1371,63.9,1386.8,63.9,1406.4z M63.6,1406.4c0-19.4-15.7-35.2-35.1-35.2
				c-19.4,0-35.1,15.7-35.1,35.2c0,19.4,15.7,35.2,35.1,35.2C47.9,1441.6,63.6,1425.8,63.6,1406.4"/>
			<path id="path3137" class="st1" d="M63.8,1406.4c0,19.5-15.8,35.3-35.2,35.3c-19.5,0-35.2-15.8-35.2-35.3
				c0-19.5,15.8-35.3,35.2-35.3C48,1371.1,63.8,1386.9,63.8,1406.4z M63.5,1406.4c0-19.3-15.6-35-34.9-35c-19.3,0-34.9,15.7-34.9,35
				s15.6,35,34.9,35C47.8,1441.4,63.5,1425.8,63.5,1406.4"/>
			<path id="path3139" class="st1" d="M63.6,1406.4c0,19.4-15.7,35.2-35.1,35.2c-19.4,0-35.1-15.7-35.1-35.2
				c0-19.4,15.7-35.2,35.1-35.2C47.9,1371.3,63.6,1387,63.6,1406.4z M63.3,1406.4c0-19.2-15.6-34.8-34.8-34.8
				c-19.2,0-34.8,15.6-34.8,34.8s15.6,34.8,34.8,34.8C47.7,1441.3,63.3,1425.7,63.3,1406.4"/>
			<path id="path3141" class="st1" d="M63.5,1406.4c0,19.3-15.6,35-34.9,35c-19.3,0-34.9-15.7-34.9-35s15.6-35,34.9-35
				C47.8,1371.4,63.5,1387.1,63.5,1406.4z M63.1,1406.4c0-19.2-15.5-34.7-34.6-34.7c-19.1,0-34.6,15.5-34.6,34.7
				c0,19.2,15.5,34.7,34.6,34.7C47.7,1441.1,63.1,1425.6,63.1,1406.4"/>
			<path id="path3143" class="st1" d="M63.3,1406.4c0,19.2-15.6,34.8-34.8,34.8c-19.2,0-34.8-15.6-34.8-34.8s15.6-34.8,34.8-34.8
				C47.7,1371.6,63.3,1387.2,63.3,1406.4z M63,1406.4c0-19.1-15.4-34.5-34.4-34.5c-19,0-34.4,15.5-34.4,34.5S9.5,1441,28.5,1441
				C47.6,1441,63,1425.5,63,1406.4"/>
			<path id="path3145" class="st1" d="M63.1,1406.4c0,19.2-15.5,34.7-34.6,34.7c-19.1,0-34.6-15.5-34.6-34.7
				c0-19.2,15.5-34.7,34.6-34.7C47.7,1371.7,63.1,1387.3,63.1,1406.4z M62.8,1406.4c0-19-15.4-34.4-34.3-34.4
				c-18.9,0-34.3,15.4-34.3,34.4c0,19,15.4,34.4,34.3,34.4C47.5,1440.8,62.8,1425.4,62.8,1406.4"/>
			<path id="path3147" class="st1" d="M63,1406.4c0,19.1-15.4,34.5-34.4,34.5c-19,0-34.4-15.5-34.4-34.5s15.4-34.5,34.4-34.5
				C47.6,1371.9,63,1387.4,63,1406.4z M62.7,1406.4c0-18.9-15.3-34.2-34.1-34.2c-18.9,0-34.1,15.3-34.1,34.2s15.3,34.2,34.1,34.2
				C47.4,1440.6,62.7,1425.3,62.7,1406.4"/>
			<path id="path3149" class="st1" d="M62.8,1406.4c0,19-15.4,34.4-34.3,34.4c-18.9,0-34.3-15.4-34.3-34.4c0-19,15.4-34.4,34.3-34.4
				C47.5,1372,62.8,1387.4,62.8,1406.4z M62.5,1406.4c0-18.8-15.2-34.1-34-34.1c-18.8,0-34,15.3-34,34.1s15.2,34.1,34,34.1
				C47.3,1440.5,62.5,1425.2,62.5,1406.4"/>
			<path id="path3151" class="st1" d="M62.7,1406.4c0,18.9-15.3,34.2-34.1,34.2c-18.9,0-34.1-15.3-34.1-34.2s15.3-34.2,34.1-34.2
				C47.4,1372.2,62.7,1387.5,62.7,1406.4z M62.4,1406.4c0-18.7-15.1-33.9-33.8-33.9c-18.7,0-33.8,15.2-33.8,33.9
				c0,18.7,15.1,33.9,33.8,33.9C47.2,1440.3,62.4,1425.1,62.4,1406.4"/>
			<path id="path3153" class="st1" d="M62.5,1406.4c0,18.8-15.2,34.1-34,34.1c-18.8,0-34-15.3-34-34.1s15.2-34.1,34-34.1
				C47.3,1372.4,62.5,1387.6,62.5,1406.4z M62.2,1406.4c0-18.6-15.1-33.7-33.7-33.7c-18.6,0-33.7,15.1-33.7,33.7
				c0,18.6,15.1,33.7,33.7,33.7C47.1,1440.2,62.2,1425.1,62.2,1406.4"/>
			<path id="path3155" class="st1" d="M62.4,1406.4c0,18.7-15.1,33.9-33.8,33.9c-18.7,0-33.8-15.2-33.8-33.9
				c0-18.7,15.1-33.9,33.8-33.9C47.2,1372.5,62.4,1387.7,62.4,1406.4z M62.1,1406.4c0-18.6-15-33.6-33.5-33.6s-33.5,15-33.5,33.6
				s15,33.6,33.5,33.6S62.1,1425,62.1,1406.4"/>
			<path id="path3157" class="st1" d="M62.2,1406.4c0,18.6-15.1,33.7-33.7,33.7c-18.6,0-33.7-15.1-33.7-33.7
				c0-18.6,15.1-33.7,33.7-33.7C47.1,1372.7,62.2,1387.8,62.2,1406.4z M61.9,1406.4c0-18.5-14.9-33.4-33.4-33.4
				c-18.4,0-33.4,15-33.4,33.4s14.9,33.4,33.4,33.4C47,1439.9,61.9,1424.9,61.9,1406.4"/>
			<path id="path3159" class="st1" d="M62.1,1406.4c0,18.6-15,33.6-33.5,33.6C10,1440-5,1425-5,1406.4c0-18.6,15-33.6,33.5-33.6
				C47,1372.8,62.1,1387.9,62.1,1406.4z M61.7,1406.4c0-18.4-14.9-33.3-33.2-33.3c-18.3,0-33.2,14.9-33.2,33.3
				c0,18.4,14.9,33.3,33.2,33.3C46.9,1439.7,61.7,1424.8,61.7,1406.4"/>
			<path id="path3161" class="st1" d="M61.9,1406.4c0,18.5-14.9,33.4-33.4,33.4c-18.4,0-33.4-15-33.4-33.4s14.9-33.4,33.4-33.4
				C47,1373,61.9,1388,61.9,1406.4z M61.6,1406.4c0-18.3-14.8-33.1-33-33.1c-18.2,0-33,14.8-33,33.1s14.8,33.1,33,33.1
				C46.8,1439.5,61.6,1424.7,61.6,1406.4"/>
			<path id="path3163" class="st2" d="M61.7,1406.4c0,18.4-14.9,33.3-33.2,33.3c-18.3,0-33.2-14.9-33.2-33.3
				c0-18.4,14.9-33.3,33.2-33.3C46.9,1373.1,61.7,1388,61.7,1406.4z M61.4,1406.4c0-18.2-14.7-33-32.9-33c-18.2,0-32.9,14.8-32.9,33
				s14.7,33,32.9,33C46.7,1439.4,61.4,1424.6,61.4,1406.4"/>
			<path id="path3165" class="st3" d="M61.6,1406.4c0,18.3-14.8,33.1-33,33.1c-18.2,0-33-14.8-33-33.1s14.8-33.1,33-33.1
				C46.8,1373.3,61.6,1388.1,61.6,1406.4z M61.3,1406.4c0-18.1-14.7-32.8-32.7-32.8c-18.1,0-32.7,14.7-32.7,32.8
				c0,18.1,14.7,32.8,32.7,32.8C46.6,1439.2,61.3,1424.5,61.3,1406.4"/>
			<path id="path3167" class="st3" d="M61.4,1406.4c0,18.2-14.7,33-32.9,33c-18.2,0-32.9-14.8-32.9-33s14.7-33,32.9-33
				C46.7,1373.5,61.4,1388.2,61.4,1406.4z M61.1,1406.4c0-18-14.6-32.7-32.6-32.7c-18,0-32.6,14.6-32.6,32.7
				c0,18,14.6,32.6,32.6,32.6C46.5,1439.1,61.1,1424.5,61.1,1406.4"/>
			<path id="path3169" class="st4" d="M61.3,1406.4c0,18.1-14.7,32.8-32.7,32.8c-18.1,0-32.7-14.7-32.7-32.8
				c0-18.1,14.7-32.8,32.7-32.8C46.6,1373.6,61.3,1388.3,61.3,1406.4z M61,1406.4c0-17.9-14.5-32.5-32.4-32.5
				c-17.9,0-32.4,14.5-32.4,32.5c0,17.9,14.5,32.5,32.4,32.5C46.4,1438.9,61,1424.4,61,1406.4"/>
			<path id="path3171" class="st4" d="M61.1,1406.4c0,18-14.6,32.7-32.6,32.7c-18,0-32.6-14.6-32.6-32.7c0-18,14.6-32.7,32.6-32.7
				C46.5,1373.8,61.1,1388.4,61.1,1406.4z M60.8,1406.4c0-17.9-14.4-32.3-32.3-32.3c-17.8,0-32.3,14.5-32.3,32.3
				c0,17.9,14.4,32.3,32.3,32.3C46.4,1438.8,60.8,1424.3,60.8,1406.4"/>
			<path id="path3173" class="st5" d="M61,1406.4c0,17.9-14.5,32.5-32.4,32.5c-17.9,0-32.4-14.5-32.4-32.5
				c0-17.9,14.5-32.5,32.4-32.5C46.4,1373.9,61,1388.5,61,1406.4z M60.6,1406.4c0-17.8-14.4-32.2-32.1-32.2
				c-17.7,0-32.1,14.4-32.1,32.2c0,17.8,14.4,32.2,32.1,32.2C46.3,1438.6,60.6,1424.2,60.6,1406.4"/>
			<path id="path3175" class="st6" d="M60.8,1406.4c0,17.9-14.4,32.3-32.3,32.3c-17.8,0-32.3-14.5-32.3-32.3
				c0-17.9,14.4-32.3,32.3-32.3C46.4,1374.1,60.8,1388.6,60.8,1406.4z M60.5,1406.4c0-17.7-14.3-32-31.9-32
				c-17.6,0-31.9,14.3-31.9,32c0,17.7,14.3,32,31.9,32C46.2,1438.4,60.5,1424.1,60.5,1406.4"/>
			<path id="path3177" class="st6" d="M60.6,1406.4c0,17.8-14.4,32.2-32.1,32.2c-17.7,0-32.1-14.4-32.1-32.2
				c0-17.8,14.4-32.2,32.1-32.2C46.3,1374.2,60.6,1388.7,60.6,1406.4z M60.3,1406.4c0-17.6-14.2-31.9-31.8-31.9
				c-17.6,0-31.8,14.3-31.8,31.9s14.2,31.9,31.8,31.9C46.1,1438.3,60.3,1424,60.3,1406.4"/>
			<path id="path3179" class="st6" d="M60.5,1406.4c0,17.7-14.3,32-31.9,32c-17.6,0-31.9-14.3-31.9-32c0-17.7,14.3-32,31.9-32
				C46.2,1374.4,60.5,1388.7,60.5,1406.4z M60.2,1406.4c0-17.5-14.2-31.7-31.6-31.7c-17.5,0-31.6,14.2-31.6,31.7
				c0,17.5,14.2,31.7,31.6,31.7C46,1438.1,60.2,1423.9,60.2,1406.4"/>
			<path id="path3181" class="st7" d="M60.3,1406.4c0,17.6-14.2,31.9-31.8,31.9c-17.6,0-31.8-14.3-31.8-31.9
				c0-17.6,14.2-31.9,31.8-31.9C46.1,1374.6,60.3,1388.8,60.3,1406.4z M60,1406.4c0-17.4-14.1-31.6-31.5-31.6
				c-17.4,0-31.5,14.1-31.5,31.6c0,17.4,14.1,31.6,31.5,31.6C45.9,1438,60,1423.8,60,1406.4"/>
			<path id="path3183" class="st8" d="M60.2,1406.4c0,17.5-14.2,31.7-31.6,31.7c-17.5,0-31.6-14.2-31.6-31.7
				c0-17.5,14.2-31.7,31.6-31.7C46,1374.7,60.2,1388.9,60.2,1406.4z M59.9,1406.4c0-17.3-14-31.4-31.3-31.4s-31.3,14.1-31.3,31.4
				c0,17.3,14,31.4,31.3,31.4S59.9,1423.8,59.9,1406.4"/>
			<path id="path3185" class="st8" d="M60,1406.4c0,17.4-14.1,31.6-31.5,31.6c-17.4,0-31.5-14.1-31.5-31.6
				c0-17.4,14.1-31.6,31.5-31.6C45.9,1374.9,60,1389,60,1406.4z M59.7,1406.4c0-17.3-14-31.2-31.2-31.2s-31.2,14-31.2,31.2
				c0,17.3,14,31.2,31.2,31.2S59.7,1423.7,59.7,1406.4"/>
			<path id="path3187" class="st9" d="M59.9,1406.4c0,17.3-14,31.4-31.3,31.4s-31.3-14.1-31.3-31.4c0-17.3,14-31.4,31.3-31.4
				S59.9,1389.1,59.9,1406.4z M59.5,1406.4c0-17.2-13.9-31.1-31-31.1c-17.1,0-31,13.9-31,31.1c0,17.2,13.9,31.1,31,31.1
				C45.7,1437.5,59.5,1423.6,59.5,1406.4"/>
			<path id="path3189" class="st9" d="M59.7,1406.4c0,17.3-14,31.2-31.2,31.2s-31.2-14-31.2-31.2c0-17.3,14-31.2,31.2-31.2
				S59.7,1389.2,59.7,1406.4z M59.4,1406.4c0-17.1-13.8-30.9-30.8-30.9c-17,0-30.8,13.8-30.8,30.9s13.8,30.9,30.8,30.9
				C45.6,1437.3,59.4,1423.5,59.4,1406.4"/>
			<path id="path3191" class="st9" d="M59.5,1406.4c0,17.2-13.9,31.1-31,31.1s-31-13.9-31-31.1c0-17.2,13.9-31.1,31-31.1
				S59.5,1389.3,59.5,1406.4z M59.2,1406.4c0-17-13.7-30.8-30.7-30.8c-16.9,0-30.7,13.8-30.7,30.8c0,17,13.7,30.8,30.7,30.8
				C45.5,1437.2,59.2,1423.4,59.2,1406.4"/>
			<path id="path3193" class="st10" d="M59.4,1406.4c0,17.1-13.8,30.9-30.8,30.9c-17,0-30.8-13.8-30.8-30.9s13.8-30.9,30.8-30.9
				C45.6,1375.5,59.4,1389.3,59.4,1406.4z M59.1,1406.4c0-16.9-13.7-30.6-30.5-30.6c-16.9,0-30.5,13.7-30.5,30.6
				c0,16.9,13.7,30.6,30.5,30.6C45.4,1437,59.1,1423.3,59.1,1406.4"/>
			<path id="path3195" class="st11" d="M59.2,1406.4c0,17-13.7,30.8-30.7,30.8c-16.9,0-30.7-13.8-30.7-30.8
				c0-17,13.7-30.8,30.7-30.8C45.5,1375.7,59.2,1389.4,59.2,1406.4z M58.9,1406.4c0-16.8-13.6-30.5-30.4-30.5s-30.4,13.6-30.4,30.5
				c0,16.8,13.6,30.5,30.4,30.5S58.9,1423.2,58.9,1406.4"/>
			<path id="path3197" class="st11" d="M59.1,1406.4c0,16.9-13.7,30.6-30.5,30.6c-16.9,0-30.5-13.7-30.5-30.6
				c0-16.9,13.7-30.6,30.5-30.6C45.4,1375.8,59.1,1389.5,59.1,1406.4z M58.8,1406.4c0-16.7-13.5-30.3-30.2-30.3
				c-16.7,0-30.2,13.6-30.2,30.3c0,16.7,13.5,30.3,30.2,30.3C45.2,1436.7,58.8,1423.2,58.8,1406.4"/>
			<path id="path3199" class="st12" d="M58.9,1406.4c0,16.8-13.6,30.5-30.4,30.5c-16.8,0-30.4-13.6-30.4-30.5s13.6-30.5,30.4-30.5
				C45.3,1376,58.9,1389.6,58.9,1406.4z M58.6,1406.4c0-16.6-13.5-30.1-30.1-30.1c-16.6,0-30.1,13.5-30.1,30.1
				c0,16.6,13.5,30.1,30.1,30.1C45.1,1436.6,58.6,1423.1,58.6,1406.4"/>
			<path id="path3201" class="st12" d="M58.8,1406.4c0,16.7-13.5,30.3-30.2,30.3c-16.7,0-30.2-13.6-30.2-30.3
				c0-16.7,13.5-30.3,30.2-30.3C45.2,1376.1,58.8,1389.7,58.8,1406.4z M58.5,1406.4c0-16.6-13.4-30-29.9-30
				c-16.5,0-29.9,13.4-29.9,30c0,16.6,13.4,30,29.9,30C45.1,1436.4,58.5,1423,58.5,1406.4"/>
			<path id="path3203" class="st13" d="M58.6,1406.4c0,16.6-13.5,30.1-30.1,30.1c-16.6,0-30.1-13.5-30.1-30.1
				c0-16.6,13.5-30.1,30.1-30.1C45.1,1376.3,58.6,1389.8,58.6,1406.4z M58.3,1406.4c0-16.5-13.3-29.8-29.8-29.8
				s-29.8,13.4-29.8,29.8c0,16.5,13.3,29.8,29.8,29.8S58.3,1422.9,58.3,1406.4"/>
			<path id="path3205" class="st13" d="M58.5,1406.4c0,16.6-13.4,30-29.9,30c-16.5,0-29.9-13.4-29.9-30c0-16.6,13.4-30,29.9-30
				C45.1,1376.4,58.5,1389.9,58.5,1406.4z M58.1,1406.4c0-16.4-13.3-29.7-29.6-29.7c-16.3,0-29.6,13.3-29.6,29.7
				c0,16.4,13.3,29.7,29.6,29.7C44.9,1436.1,58.1,1422.8,58.1,1406.4"/>
			<path id="path3207" class="st14" d="M58.3,1406.4c0,16.5-13.3,29.8-29.8,29.8s-29.8-13.4-29.8-29.8c0-16.5,13.3-29.8,29.8-29.8
				S58.3,1390,58.3,1406.4z M58,1406.4c0-16.3-13.2-29.5-29.4-29.5c-16.3,0-29.4,13.2-29.4,29.5s13.2,29.5,29.4,29.5
				C44.8,1435.9,58,1422.7,58,1406.4"/>
			<path id="path3209" class="st14" d="M58.1,1406.4c0,16.4-13.3,29.7-29.6,29.7c-16.3,0-29.6-13.3-29.6-29.7
				c0-16.4,13.3-29.7,29.6-29.7C44.9,1376.8,58.1,1390,58.1,1406.4z M57.8,1406.4c0-16.2-13.1-29.4-29.3-29.4
				c-16.2,0-29.3,13.1-29.3,29.4s13.1,29.4,29.3,29.4C44.7,1435.8,57.8,1422.6,57.8,1406.4"/>
			<path id="path3211" class="st15" d="M58,1406.4c0,16.3-13.2,29.5-29.4,29.5c-16.3,0-29.4-13.2-29.4-29.5
				c0-16.3,13.2-29.5,29.4-29.5C44.8,1376.9,58,1390.1,58,1406.4z M57.7,1406.4c0-16.1-13-29.2-29.1-29.2
				c-16.1,0-29.1,13.1-29.1,29.2c0,16.1,13,29.2,29.1,29.2C44.6,1435.6,57.7,1422.5,57.7,1406.4"/>
			<path id="path3213" class="st15" d="M57.8,1406.4c0,16.2-13.1,29.4-29.3,29.4c-16.2,0-29.3-13.1-29.3-29.4s13.1-29.4,29.3-29.4
				C44.7,1377.1,57.8,1390.2,57.8,1406.4z M57.5,1406.4c0-16-13-29-29-29c-16,0-29,13-29,29c0,16,13,29,29,29
				C44.5,1435.5,57.5,1422.5,57.5,1406.4"/>
			<path id="path3215" class="st16" d="M57.7,1406.4c0,16.1-13,29.2-29.1,29.2c-16.1,0-29.1-13.1-29.1-29.2
				c0-16.1,13-29.2,29.1-29.2C44.6,1377.2,57.7,1390.3,57.7,1406.4z M57.4,1406.4c0-16-12.9-28.9-28.8-28.9
				c-15.9,0-28.8,12.9-28.8,28.9c0,16,12.9,28.9,28.8,28.9C44.5,1435.3,57.4,1422.4,57.4,1406.4"/>
			<path id="path3217" class="st17" d="M57.5,1406.4c0,16-13,29-29,29c-16,0-29-13-29-29c0-16,13-29,29-29
				C44.5,1377.4,57.5,1390.4,57.5,1406.4z M57.2,1406.4c0-15.9-12.8-28.7-28.7-28.7c-15.8,0-28.7,12.9-28.7,28.7
				c0,15.9,12.8,28.7,28.7,28.7C44.4,1435.2,57.2,1422.3,57.2,1406.4"/>
			<path id="path3219" class="st17" d="M57.4,1406.4c0,16-12.9,28.9-28.8,28.9c-15.9,0-28.8-12.9-28.8-28.9
				c0-16,12.9-28.9,28.8-28.9C44.5,1377.5,57.4,1390.5,57.4,1406.4z M57,1406.4c0-15.8-12.8-28.6-28.5-28.6
				c-15.7,0-28.5,12.8-28.5,28.6c0,15.8,12.8,28.6,28.5,28.6C44.3,1435,57,1422.2,57,1406.4"/>
			<path id="path3221" class="st18" d="M57.2,1406.4c0,15.9-12.8,28.7-28.7,28.7c-15.8,0-28.7-12.9-28.7-28.7
				c0-15.9,12.8-28.7,28.7-28.7C44.4,1377.7,57.2,1390.6,57.2,1406.4z M56.9,1406.4c0-15.7-12.7-28.4-28.3-28.4
				c-15.7,0-28.3,12.7-28.3,28.4s12.7,28.4,28.3,28.4C44.2,1434.8,56.9,1422.1,56.9,1406.4"/>
			<path id="path3223" class="st18" d="M57,1406.4c0,15.8-12.8,28.6-28.5,28.6c-15.7,0-28.5-12.8-28.5-28.6
				c0-15.8,12.8-28.6,28.5-28.6C44.3,1377.9,57,1390.6,57,1406.4z M56.7,1406.4c0-15.6-12.6-28.3-28.2-28.3
				c-15.6,0-28.2,12.7-28.2,28.3s12.6,28.3,28.2,28.3C44.1,1434.7,56.7,1422,56.7,1406.4"/>
			<path id="path3225" class="st19" d="M56.9,1406.4c0,15.7-12.7,28.4-28.3,28.4c-15.7,0-28.3-12.7-28.3-28.4s12.7-28.4,28.3-28.4
				C44.2,1378,56.9,1390.7,56.9,1406.4z M56.6,1406.4c0-15.5-12.5-28.1-28-28.1c-15.5,0-28,12.6-28,28.1s12.6,28.1,28,28.1
				C44,1434.5,56.6,1421.9,56.6,1406.4"/>
			<path id="path3227" class="st20" d="M56.7,1406.4c0,15.6-12.6,28.3-28.2,28.3c-15.6,0-28.2-12.7-28.2-28.3s12.6-28.3,28.2-28.3
				C44.1,1378.2,56.7,1390.8,56.7,1406.4z M56.4,1406.4c0-15.4-12.5-27.9-27.9-27.9c-15.4,0-27.9,12.5-27.9,27.9
				c0,15.4,12.5,27.9,27.9,27.9C43.9,1434.4,56.4,1421.9,56.4,1406.4"/>
			<path id="path3229" class="st20" d="M56.6,1406.4c0,15.5-12.6,28.1-28,28.1c-15.5,0-28-12.6-28-28.1c0-15.5,12.6-28.1,28-28.1
				C44,1378.3,56.6,1390.9,56.6,1406.4z M56.3,1406.4c0-15.3-12.4-27.8-27.7-27.8c-15.3,0-27.7,12.4-27.7,27.8
				c0,15.3,12.4,27.8,27.7,27.8C43.8,1434.2,56.3,1421.8,56.3,1406.4"/>
			<path id="path3231" class="st21" d="M56.4,1406.4c0,15.4-12.5,27.9-27.9,27.9c-15.4,0-27.9-12.5-27.9-27.9
				c0-15.4,12.5-27.9,27.9-27.9C43.9,1378.5,56.4,1391,56.4,1406.4z M56.1,1406.4c0-15.3-12.3-27.6-27.6-27.6
				c-15.2,0-27.6,12.4-27.6,27.6s12.3,27.6,27.6,27.6C43.8,1434.1,56.1,1421.7,56.1,1406.4"/>
			<path id="path3233" class="st21" d="M56.3,1406.4c0,15.3-12.4,27.8-27.7,27.8c-15.3,0-27.7-12.4-27.7-27.8
				c0-15.3,12.4-27.8,27.7-27.8C43.8,1378.6,56.3,1391.1,56.3,1406.4z M55.9,1406.4c0-15.2-12.3-27.5-27.4-27.5
				c-15.1,0-27.4,12.3-27.4,27.5c0,15.2,12.3,27.5,27.4,27.5C43.7,1433.9,55.9,1421.6,55.9,1406.4"/>
			<path id="path3235" class="st22" d="M56.1,1406.4c0,15.3-12.3,27.6-27.6,27.6c-15.2,0-27.6-12.4-27.6-27.6s12.3-27.6,27.6-27.6
				C43.8,1378.8,56.1,1391.2,56.1,1406.4z M55.8,1406.4c0-15.1-12.2-27.3-27.2-27.3c-15,0-27.2,12.2-27.2,27.3s12.2,27.3,27.2,27.3
				C43.6,1433.7,55.8,1421.5,55.8,1406.4"/>
			<path id="path3237" class="st22" d="M55.9,1406.4c0,15.2-12.3,27.5-27.4,27.5c-15.1,0-27.4-12.3-27.4-27.5
				c0-15.2,12.3-27.5,27.4-27.5C43.7,1379,55.9,1391.3,55.9,1406.4z M55.6,1406.4c0-15-12.1-27.2-27.1-27.2
				c-15,0-27.1,12.2-27.1,27.2s12.1,27.2,27.1,27.2C43.5,1433.6,55.6,1421.4,55.6,1406.4"/>
			<path id="path3239" class="st23" d="M55.8,1406.4c0,15.1-12.2,27.3-27.2,27.3c-15,0-27.2-12.2-27.2-27.3s12.2-27.3,27.2-27.3
				C43.6,1379.1,55.8,1391.3,55.8,1406.4z M55.5,1406.4c0-14.9-12.1-27-26.9-27c-14.9,0-26.9,12.1-26.9,27s12.1,27,26.9,27
				C43.4,1433.4,55.5,1421.3,55.5,1406.4"/>
			<path id="path3241" class="st24" d="M55.6,1406.4c0,15-12.1,27.2-27.1,27.2c-15,0-27.1-12.2-27.1-27.2s12.1-27.2,27.1-27.2
				C43.5,1379.3,55.6,1391.4,55.6,1406.4z M55.3,1406.4c0-14.8-12-26.8-26.8-26.8c-14.8,0-26.8,12-26.8,26.8
				c0,14.8,12,26.8,26.8,26.8C43.3,1433.3,55.3,1421.2,55.3,1406.4"/>
			<path id="path3243" class="st24" d="M55.5,1406.4c0,14.9-12.1,27-26.9,27c-14.9,0-26.9-12.1-26.9-27s12.1-27,26.9-27
				C43.4,1379.4,55.5,1391.5,55.5,1406.4z M55.2,1406.4c0-14.7-11.9-26.7-26.6-26.7s-26.6,11.9-26.6,26.7
				c0,14.7,11.9,26.7,26.6,26.7S55.2,1421.2,55.2,1406.4"/>
			<path id="path3245" class="st24" d="M55.3,1406.4c0,14.8-12,26.8-26.8,26.8c-14.8,0-26.8-12-26.8-26.8c0-14.8,12-26.8,26.8-26.8
				C43.3,1379.6,55.3,1391.6,55.3,1406.4z M55,1406.4c0-14.6-11.8-26.5-26.5-26.5s-26.5,11.9-26.5,26.5s11.8,26.5,26.5,26.5
				S55,1421.1,55,1406.4"/>
			<path id="path3247" class="st25" d="M55.2,1406.4c0,14.7-11.9,26.7-26.6,26.7s-26.6-11.9-26.6-26.7c0-14.7,11.9-26.7,26.6-26.7
				S55.2,1391.7,55.2,1406.4z M54.9,1406.4c0-14.6-11.8-26.4-26.3-26.4c-14.5,0-26.3,11.8-26.3,26.4s11.8,26.4,26.3,26.4
				C43.1,1432.8,54.9,1421,54.9,1406.4"/>
			<path id="path3249" class="st25" d="M55,1406.4c0,14.6-11.8,26.5-26.5,26.5s-26.5-11.9-26.5-26.5s11.8-26.5,26.5-26.5
				S55,1391.8,55,1406.4z M54.7,1406.4c0-14.5-11.7-26.2-26.1-26.2c-14.4,0-26.1,11.7-26.1,26.2s11.7,26.2,26.1,26.2
				C43,1432.6,54.7,1420.9,54.7,1406.4"/>
			<path id="path3251" class="st26" d="M54.9,1406.4c0,14.6-11.8,26.4-26.3,26.4c-14.5,0-26.3-11.8-26.3-26.4s11.8-26.4,26.3-26.4
				C43.1,1380.1,54.9,1391.9,54.9,1406.4z M54.5,1406.4c0-14.4-11.6-26.1-26-26.1s-26,11.7-26,26.1s11.6,26.1,26,26.1
				S54.5,1420.8,54.5,1406.4"/>
			<path id="path3253" class="st27" d="M54.7,1406.4c0,14.5-11.7,26.2-26.1,26.2c-14.4,0-26.1-11.7-26.1-26.2s11.7-26.2,26.1-26.2
				C43,1380.2,54.7,1391.9,54.7,1406.4z M54.4,1406.4c0-14.3-11.6-25.9-25.8-25.9s-25.8,11.6-25.8,25.9s11.6,25.9,25.8,25.9
				S54.4,1420.7,54.4,1406.4"/>
			<path id="path3255" class="st28" d="M54.5,1406.4c0,14.4-11.6,26.1-26,26.1s-26-11.7-26-26.1s11.6-26.1,26-26.1
				S54.5,1392,54.5,1406.4z M54.2,1406.4c0-14.2-11.5-25.7-25.7-25.7c-14.2,0-25.7,11.5-25.7,25.7c0,14.2,11.5,25.7,25.7,25.7
				C42.7,1432.2,54.2,1420.6,54.2,1406.4"/>
			<path id="path3257" class="st28" d="M54.4,1406.4c0,14.3-11.6,25.9-25.8,25.9s-25.8-11.6-25.8-25.9s11.6-25.9,25.8-25.9
				S54.4,1392.1,54.4,1406.4z M54.1,1406.4c0-14.1-11.4-25.6-25.5-25.6S3,1392.3,3,1406.4s11.4,25.6,25.5,25.6
				S54.1,1420.6,54.1,1406.4"/>
			<path id="path3259" class="st29" d="M54.2,1406.4c0,14.2-11.5,25.7-25.7,25.7c-14.2,0-25.7-11.5-25.7-25.7
				c0-14.2,11.5-25.7,25.7-25.7C42.7,1380.7,54.2,1392.2,54.2,1406.4z M53.9,1406.4c0-14-11.4-25.4-25.4-25.4
				c-14,0-25.4,11.4-25.4,25.4s11.4,25.4,25.4,25.4C42.6,1431.9,53.9,1420.5,53.9,1406.4"/>
			<path id="path3261" class="st29" d="M54.1,1406.4c0,14.1-11.4,25.6-25.5,25.6c-14.1,0-25.5-11.5-25.5-25.6s11.4-25.6,25.5-25.6
				C42.6,1380.8,54.1,1392.3,54.1,1406.4z M53.8,1406.4c0-14-11.3-25.3-25.2-25.3s-25.2,11.3-25.2,25.3c0,14,11.3,25.3,25.2,25.3
				S53.8,1420.4,53.8,1406.4"/>
			<path id="path3263" class="st30" d="M53.9,1406.4c0,14-11.4,25.4-25.4,25.4c-14,0-25.4-11.4-25.4-25.4s11.4-25.4,25.4-25.4
				C42.6,1381,53.9,1392.4,53.9,1406.4z M53.6,1406.4c0-13.9-11.2-25.1-25.1-25.1s-25.1,11.2-25.1,25.1c0,13.9,11.2,25.1,25.1,25.1
				S53.6,1420.3,53.6,1406.4"/>
			<path id="path3265" class="st31" d="M53.8,1406.4c0,14-11.3,25.3-25.2,25.3s-25.2-11.3-25.2-25.3c0-14,11.3-25.3,25.2-25.3
				S53.8,1392.5,53.8,1406.4z M53.4,1406.4c0-13.8-11.1-25-24.9-25c-13.7,0-24.9,11.2-24.9,25c0,13.8,11.1,25,24.9,25
				C42.3,1431.4,53.4,1420.2,53.4,1406.4"/>
			<path id="path3267" class="st31" d="M53.6,1406.4c0,13.9-11.2,25.1-25.1,25.1s-25.1-11.2-25.1-25.1c0-13.9,11.2-25.1,25.1-25.1
				S53.6,1392.6,53.6,1406.4z M53.3,1406.4c0-13.7-11.1-24.8-24.7-24.8c-13.7,0-24.7,11.1-24.7,24.8s11.1,24.8,24.7,24.8
				C42.2,1431.2,53.3,1420.1,53.3,1406.4"/>
			<path id="path3269" class="st32" d="M53.4,1406.4c0,13.8-11.1,25-24.9,25c-13.7,0-24.9-11.2-24.9-25c0-13.8,11.1-25,24.9-25
				C42.3,1381.5,53.4,1392.6,53.4,1406.4z M53.1,1406.4c0-13.6-11-24.6-24.6-24.6c-13.6,0-24.6,11-24.6,24.6s11,24.6,24.6,24.6
				C42.1,1431.1,53.1,1420,53.1,1406.4"/>
			<path id="path3271" class="st33" d="M53.3,1406.4c0,13.7-11.1,24.8-24.7,24.8c-13.7,0-24.7-11.1-24.7-24.8s11.1-24.8,24.7-24.8
				C42.2,1381.6,53.3,1392.7,53.3,1406.4z M53,1406.4c0-13.5-10.9-24.5-24.4-24.5c-13.5,0-24.4,11-24.4,24.5
				c0,13.5,10.9,24.5,24.4,24.5C42,1430.9,53,1419.9,53,1406.4"/>
			<path id="path3273" class="st33" d="M53.1,1406.4c0,13.6-11,24.6-24.6,24.6c-13.6,0-24.6-11-24.6-24.6s11-24.6,24.6-24.6
				C42.1,1381.8,53.1,1392.8,53.1,1406.4z M52.8,1406.4c0-13.4-10.9-24.3-24.3-24.3c-13.4,0-24.3,10.9-24.3,24.3
				s10.9,24.3,24.3,24.3C41.9,1430.8,52.8,1419.9,52.8,1406.4"/>
			<path id="path3275" class="st34" d="M53,1406.4c0,13.5-10.9,24.5-24.4,24.5c-13.5,0-24.4-11-24.4-24.5
				c0-13.5,10.9-24.5,24.4-24.5C42,1381.9,53,1392.9,53,1406.4z M52.7,1406.4c0-13.3-10.8-24.2-24.1-24.2
				c-13.3,0-24.1,10.8-24.1,24.2c0,13.3,10.8,24.2,24.1,24.2C41.9,1430.6,52.7,1419.8,52.7,1406.4"/>
			<path id="path3277" class="st35" d="M52.8,1406.4c0,13.4-10.9,24.3-24.3,24.3c-13.4,0-24.3-10.9-24.3-24.3s10.9-24.3,24.3-24.3
				C41.9,1382.1,52.8,1393,52.8,1406.4z M52.5,1406.4c0-13.3-10.7-24-24-24s-24,10.8-24,24c0,13.3,10.7,24,24,24
				S52.5,1419.7,52.5,1406.4"/>
			<path id="path3279" class="st35" d="M52.7,1406.4c0,13.3-10.8,24.2-24.1,24.2c-13.3,0-24.1-10.8-24.1-24.2
				c0-13.3,10.8-24.2,24.1-24.2C41.9,1382.3,52.7,1393.1,52.7,1406.4z M52.3,1406.4c0-13.2-10.7-23.9-23.8-23.9
				c-13.1,0-23.8,10.7-23.8,23.9c0,13.2,10.7,23.9,23.8,23.9C41.7,1430.3,52.3,1419.6,52.3,1406.4"/>
			<path id="path3281" class="st35" d="M52.5,1406.4c0,13.3-10.7,24-24,24c-13.2,0-24-10.8-24-24c0-13.3,10.7-24,24-24
				C41.8,1382.4,52.5,1393.2,52.5,1406.4z M52.2,1406.4c0-13.1-10.6-23.7-23.6-23.7c-13.1,0-23.6,10.6-23.6,23.7
				c0,13.1,10.6,23.7,23.6,23.7C41.6,1430.1,52.2,1419.5,52.2,1406.4"/>
			<path id="path3283" class="st36" d="M52.3,1406.4c0,13.2-10.7,23.9-23.8,23.9c-13.1,0-23.8-10.7-23.8-23.9
				c0-13.2,10.7-23.9,23.8-23.9C41.7,1382.6,52.3,1393.2,52.3,1406.4z M52,1406.4c0-13-10.5-23.5-23.5-23.5
				c-13,0-23.5,10.5-23.5,23.5c0,13,10.5,23.5,23.5,23.5C41.5,1430,52,1419.4,52,1406.4"/>
			<path id="path3285" class="st37" d="M52.2,1406.4c0,13.1-10.6,23.7-23.6,23.7c-13.1,0-23.6-10.6-23.6-23.7
				c0-13.1,10.6-23.7,23.6-23.7C41.6,1382.7,52.2,1393.3,52.2,1406.4z M51.9,1406.4c0-12.9-10.4-23.4-23.3-23.4
				c-12.9,0-23.3,10.5-23.3,23.4s10.4,23.4,23.3,23.4C41.4,1429.8,51.9,1419.3,51.9,1406.4"/>
			<path id="path3287" class="st37" d="M52,1406.4c0,13-10.5,23.5-23.5,23.5c-13,0-23.5-10.5-23.5-23.5c0-13,10.5-23.5,23.5-23.5
				C41.5,1382.9,52,1393.4,52,1406.4z M51.7,1406.4c0-12.8-10.4-23.2-23.2-23.2c-12.8,0-23.2,10.4-23.2,23.2
				c0,12.8,10.4,23.2,23.2,23.2C41.3,1429.7,51.7,1419.3,51.7,1406.4"/>
			<path id="path3289" class="st38" d="M51.9,1406.4c0,12.9-10.4,23.4-23.3,23.4c-12.9,0-23.3-10.5-23.3-23.4s10.4-23.4,23.3-23.4
				C41.4,1383,51.9,1393.5,51.9,1406.4z M51.6,1406.4c0-12.7-10.3-23.1-23-23.1c-12.7,0-23,10.3-23,23.1s10.3,23.1,23,23.1
				C41.3,1429.5,51.6,1419.2,51.6,1406.4"/>
			<path id="path3291" class="st38" d="M51.7,1406.4c0,12.8-10.4,23.2-23.2,23.2c-12.8,0-23.2-10.4-23.2-23.2
				c0-12.8,10.4-23.2,23.2-23.2C41.3,1383.2,51.7,1393.6,51.7,1406.4z M51.4,1406.4c0-12.7-10.2-22.9-22.9-22.9
				c-12.6,0-22.9,10.3-22.9,22.9c0,12.7,10.2,22.9,22.9,22.9C41.2,1429.3,51.4,1419.1,51.4,1406.4"/>
			<path id="path3293" class="st38" d="M51.6,1406.4c0,12.7-10.3,23.1-23,23.1c-12.7,0-23-10.3-23-23.1c0-12.7,10.3-23.1,23-23.1
				C41.3,1383.4,51.6,1393.7,51.6,1406.4z M51.2,1406.4c0-12.6-10.2-22.8-22.7-22.8c-12.5,0-22.7,10.2-22.7,22.8
				c0,12.6,10.2,22.8,22.7,22.8C41.1,1429.2,51.2,1419,51.2,1406.4"/>
			<path id="path3295" class="st38" d="M51.4,1406.4c0,12.7-10.2,22.9-22.9,22.9c-12.6,0-22.9-10.3-22.9-22.9
				c0-12.7,10.2-22.9,22.9-22.9C41.2,1383.5,51.4,1393.8,51.4,1406.4z M51.1,1406.4c0-12.5-10.1-22.6-22.5-22.6
				c-12.5,0-22.5,10.1-22.5,22.6s10.1,22.6,22.5,22.6C41,1429,51.1,1418.9,51.1,1406.4"/>
			<path id="path3297" class="st38" d="M51.2,1406.4c0,12.6-10.2,22.8-22.7,22.8c-12.5,0-22.7-10.2-22.7-22.8
				c0-12.6,10.2-22.8,22.7-22.8C41.1,1383.7,51.2,1393.9,51.2,1406.4z M50.9,1406.4c0-12.4-10-22.4-22.4-22.4
				c-12.4,0-22.4,10.1-22.4,22.4c0,12.4,10,22.4,22.4,22.4C40.9,1428.9,50.9,1418.8,50.9,1406.4"/>
			<path id="path3299" class="st38" d="M51.1,1406.4c0,12.5-10.1,22.6-22.5,22.6c-12.5,0-22.5-10.1-22.5-22.6s10.1-22.6,22.5-22.6
				C41,1383.8,51.1,1393.9,51.1,1406.4z M50.8,1406.4c0-12.3-10-22.3-22.2-22.3c-12.3,0-22.2,10-22.2,22.3s10,22.3,22.2,22.3
				C40.8,1428.7,50.8,1418.7,50.8,1406.4"/>
			<path id="path3301" class="st38" d="M50.9,1406.4c0,12.4-10,22.4-22.4,22.4c-12.4,0-22.4-10.1-22.4-22.4
				c0-12.4,10-22.4,22.4-22.4C40.9,1384,50.9,1394,50.9,1406.4z M50.6,1406.4c0-12.2-9.9-22.1-22.1-22.1c-12.2,0-22.1,9.9-22.1,22.1
				s9.9,22.1,22.1,22.1C40.7,1428.6,50.6,1418.6,50.6,1406.4"/>
			<path id="path3303" class="st38" d="M50.8,1406.4c0,12.3-10,22.3-22.2,22.3c-12.3,0-22.2-10-22.2-22.3s10-22.3,22.2-22.3
				C40.8,1384.1,50.8,1394.1,50.8,1406.4z M50.5,1406.4c0-12.1-9.8-22-21.9-22c-12.1,0-21.9,9.8-21.9,22c0,12.1,9.8,22,21.9,22
				C40.7,1428.4,50.5,1418.6,50.5,1406.4"/>
			<path id="path3305" class="st38" d="M50.6,1406.4c0,12.2-9.9,22.1-22.1,22.1c-12.2,0-22.1-9.9-22.1-22.1s9.9-22.1,22.1-22.1
				C40.7,1384.3,50.6,1394.2,50.6,1406.4z M50.3,1406.4c0-12-9.7-21.8-21.8-21.8c-12,0-21.8,9.8-21.8,21.8c0,12,9.7,21.8,21.8,21.8
				C40.6,1428.2,50.3,1418.5,50.3,1406.4"/>
			<path id="path3307" class="st38" d="M50.5,1406.4c0,12.1-9.8,22-21.9,22c-12.1,0-21.9-9.8-21.9-22c0-12.1,9.8-22,21.9-22
				C40.7,1384.4,50.5,1394.3,50.5,1406.4z M50.2,1406.4c0-12-9.7-21.7-21.6-21.7c-11.9,0-21.6,9.7-21.6,21.7
				c0,12,9.7,21.7,21.6,21.7C40.5,1428.1,50.2,1418.4,50.2,1406.4"/>
			<path id="path3309" class="st38" d="M50.3,1406.4c0,12-9.7,21.8-21.8,21.8c-12,0-21.8-9.8-21.8-21.8c0-12,9.7-21.8,21.8-21.8
				C40.6,1384.6,50.3,1394.4,50.3,1406.4z M50,1406.4c0-11.9-9.6-21.5-21.5-21.5s-21.5,9.6-21.5,21.5c0,11.9,9.6,21.5,21.5,21.5
				S50,1418.3,50,1406.4"/>
			<path id="path3311" class="st38" d="M50.2,1406.4c0,12-9.7,21.7-21.6,21.7c-11.9,0-21.6-9.7-21.6-21.7c0-12,9.7-21.7,21.6-21.7
				C40.5,1384.8,50.2,1394.5,50.2,1406.4z M49.8,1406.4c0-11.8-9.5-21.3-21.3-21.3c-11.8,0-21.3,9.6-21.3,21.3
				c0,11.8,9.5,21.3,21.3,21.3C40.3,1427.8,49.8,1418.2,49.8,1406.4"/>
			<path id="path3313" class="st38" d="M50,1406.4c0,11.9-9.6,21.5-21.5,21.5s-21.5-9.6-21.5-21.5c0-11.9,9.6-21.5,21.5-21.5
				S50,1394.6,50,1406.4z M49.7,1406.4c0-11.7-9.5-21.2-21.1-21.2c-11.7,0-21.1,9.5-21.1,21.2s9.5,21.2,21.1,21.2
				C40.2,1427.6,49.7,1418.1,49.7,1406.4"/>
			<path id="path3315" class="st38" d="M49.8,1406.4c0,11.8-9.5,21.3-21.3,21.3c-11.8,0-21.3-9.6-21.3-21.3
				c0-11.8,9.5-21.3,21.3-21.3C40.3,1385.1,49.8,1394.6,49.8,1406.4z M49.5,1406.4c0-11.6-9.4-21-21-21c-11.6,0-21,9.4-21,21
				s9.4,21,21,21C40.1,1427.5,49.5,1418,49.5,1406.4"/>
			<path id="path3317" class="st38" d="M49.7,1406.4c0,11.7-9.5,21.2-21.1,21.2c-11.7,0-21.1-9.5-21.1-21.2s9.5-21.2,21.1-21.2
				C40.2,1385.2,49.7,1394.7,49.7,1406.4z M49.4,1406.4c0-11.5-9.3-20.9-20.8-20.9c-11.5,0-20.8,9.3-20.8,20.9
				c0,11.5,9.3,20.9,20.8,20.9C40,1427.3,49.4,1418,49.4,1406.4"/>
			<path id="path3319" class="st38" d="M49.5,1406.4c0,11.6-9.4,21-21,21c-11.6,0-21-9.4-21-21s9.4-21,21-21
				C40.1,1385.4,49.5,1394.8,49.5,1406.4z M49.2,1406.4c0-11.4-9.3-20.7-20.7-20.7c-11.4,0-20.7,9.3-20.7,20.7s9.3,20.7,20.7,20.7
				C40,1427.1,49.2,1417.9,49.2,1406.4"/>
			<path id="path3321" class="st38" d="M49.4,1406.4c0,11.5-9.3,20.9-20.8,20.9c-11.5,0-20.8-9.3-20.8-20.9
				c0-11.5,9.3-20.9,20.8-20.9C40,1385.5,49.4,1394.9,49.4,1406.4z M49.1,1406.4c0-11.4-9.2-20.6-20.5-20.6S8,1395.1,8,1406.4
				c0,11.4,9.2,20.6,20.5,20.6S49.1,1417.8,49.1,1406.4"/>
			<path id="path3323" class="st38" d="M49.2,1406.4c0,11.4-9.3,20.7-20.7,20.7c-11.4,0-20.7-9.3-20.7-20.7
				c0-11.4,9.3-20.7,20.7-20.7C40,1385.7,49.2,1395,49.2,1406.4z M48.9,1406.4c0-11.3-9.1-20.4-20.4-20.4s-20.4,9.1-20.4,20.4
				c0,11.3,9.1,20.4,20.4,20.4S48.9,1417.7,48.9,1406.4"/>
			<path id="path3325" class="st38" d="M49.1,1406.4c0,11.4-9.2,20.6-20.5,20.6S8,1417.8,8,1406.4c0-11.4,9.2-20.6,20.5-20.6
				S49.1,1395.1,49.1,1406.4z M48.7,1406.4c0-11.2-9-20.2-20.2-20.2s-20.2,9.1-20.2,20.2c0,11.2,9,20.2,20.2,20.2
				S48.7,1417.6,48.7,1406.4"/>
			<path id="path3327" class="st38" d="M48.9,1406.4c0,11.3-9.1,20.4-20.4,20.4s-20.4-9.1-20.4-20.4c0-11.3,9.1-20.4,20.4-20.4
				S48.9,1395.2,48.9,1406.4z M48.6,1406.4c0-11.1-9-20.1-20-20.1c-11.1,0-20,9-20,20.1s9,20.1,20,20.1
				C39.6,1426.5,48.6,1417.5,48.6,1406.4"/>
			<path id="path3329" class="st38" d="M48.7,1406.4c0,11.2-9,20.2-20.2,20.2s-20.2-9.1-20.2-20.2c0-11.2,9-20.2,20.2-20.2
				S48.7,1395.2,48.7,1406.4z M48.4,1406.4c0-11-8.9-19.9-19.9-19.9c-11,0-19.9,8.9-19.9,19.9s8.9,19.9,19.9,19.9
				C39.5,1426.4,48.4,1417.4,48.4,1406.4"/>
			<path id="path3331" class="st38" d="M48.6,1406.4c0,11.1-9,20.1-20,20.1c-11.1,0-20-9-20-20.1s9-20.1,20-20.1
				C39.6,1386.3,48.6,1395.3,48.6,1406.4z M48.3,1406.4c0-10.9-8.8-19.8-19.7-19.8c-10.9,0-19.7,8.9-19.7,19.8s8.8,19.8,19.7,19.8
				C39.4,1426.2,48.3,1417.3,48.3,1406.4"/>
			<path id="path3333" class="st38" d="M48.4,1406.4c0,11-8.9,19.9-19.9,19.9c-11,0-19.9-8.9-19.9-19.9c0-11,8.9-19.9,19.9-19.9
				C39.5,1386.5,48.4,1395.4,48.4,1406.4z M48.1,1406.4c0-10.8-8.8-19.6-19.6-19.6c-10.8,0-19.6,8.8-19.6,19.6s8.8,19.6,19.6,19.6
				C39.4,1426,48.1,1417.3,48.1,1406.4"/>
			<path id="path3335" class="st38" d="M48.3,1406.4c0,10.9-8.8,19.8-19.7,19.8c-10.9,0-19.7-8.9-19.7-19.8s8.8-19.8,19.7-19.8
				C39.4,1386.6,48.3,1395.5,48.3,1406.4z M48,1406.4c0-10.7-8.7-19.5-19.4-19.5s-19.4,8.7-19.4,19.5c0,10.7,8.7,19.5,19.4,19.5
				S48,1417.2,48,1406.4"/>
			<path id="path3337" class="st38" d="M48.1,1406.4c0,10.8-8.8,19.6-19.6,19.6c-10.8,0-19.6-8.8-19.6-19.6s8.8-19.6,19.6-19.6
				C39.4,1386.8,48.1,1395.6,48.1,1406.4z M47.8,1406.4c0-10.7-8.6-19.3-19.3-19.3s-19.3,8.6-19.3,19.3c0,10.7,8.6,19.3,19.3,19.3
				S47.8,1417.1,47.8,1406.4"/>
			<path id="path3339" class="st38" d="M48,1406.4c0,10.7-8.7,19.5-19.4,19.5s-19.4-8.7-19.4-19.5c0-10.7,8.7-19.5,19.4-19.5
				S48,1395.7,48,1406.4z M47.6,1406.4c0-10.6-8.6-19.2-19.1-19.2c-10.5,0-19.1,8.6-19.1,19.2c0,10.6,8.6,19.2,19.1,19.2
				C39.1,1425.6,47.6,1417,47.6,1406.4"/>
			<path id="path3341" class="st38" d="M47.8,1406.4c0,10.7-8.6,19.3-19.3,19.3s-19.3-8.6-19.3-19.3c0-10.7,8.6-19.3,19.3-19.3
				S47.8,1395.8,47.8,1406.4z M47.5,1406.4c0-10.5-8.5-19-18.9-19c-10.5,0-18.9,8.5-18.9,19c0,10.5,8.5,19,18.9,19
				C39,1425.4,47.5,1416.9,47.5,1406.4"/>
			<path id="path3343" class="st38" d="M47.6,1406.4c0,10.6-8.6,19.2-19.1,19.2s-19.1-8.6-19.1-19.2c0-10.6,8.6-19.2,19.1-19.2
				S47.6,1395.9,47.6,1406.4z M47.3,1406.4c0-10.4-8.4-18.8-18.8-18.8c-10.4,0-18.8,8.4-18.8,18.8c0,10.4,8.4,18.8,18.8,18.8
				C38.9,1425.3,47.3,1416.8,47.3,1406.4"/>
			<path id="path3345" class="st38" d="M47.5,1406.4c0,10.5-8.5,19-18.9,19s-18.9-8.5-18.9-19s8.5-19,18.9-19
				S47.5,1395.9,47.5,1406.4z M47.2,1406.4c0-10.3-8.3-18.7-18.6-18.7c-10.3,0-18.6,8.4-18.6,18.7s8.3,18.7,18.6,18.7
				C38.8,1425.1,47.2,1416.7,47.2,1406.4"/>
			<path id="path3347" class="st38" d="M47.3,1406.4c0,10.4-8.4,18.8-18.8,18.8c-10.4,0-18.8-8.4-18.8-18.8
				c0-10.4,8.4-18.8,18.8-18.8C38.9,1387.6,47.3,1396,47.3,1406.4z M47,1406.4c0-10.2-8.3-18.5-18.5-18.5
				c-10.2,0-18.5,8.3-18.5,18.5s8.3,18.5,18.5,18.5C38.7,1424.9,47,1416.7,47,1406.4"/>
			<path id="path3349" class="st38" d="M47.2,1406.4c0,10.3-8.3,18.7-18.6,18.7c-10.3,0-18.6-8.4-18.6-18.7s8.3-18.7,18.6-18.7
				C38.8,1387.7,47.2,1396.1,47.2,1406.4z M46.9,1406.4c0-10.1-8.2-18.4-18.3-18.4c-10.1,0-18.3,8.2-18.3,18.4s8.2,18.4,18.3,18.4
				C38.7,1424.8,46.9,1416.6,46.9,1406.4"/>
			<path id="path3351" class="st38" d="M47,1406.4c0,10.2-8.3,18.5-18.5,18.5c-10.2,0-18.5-8.3-18.5-18.5s8.3-18.5,18.5-18.5
				C38.7,1387.9,47,1396.2,47,1406.4z M46.7,1406.4c0-10.1-8.1-18.2-18.2-18.2c-10,0-18.2,8.2-18.2,18.2s8.1,18.2,18.2,18.2
				C38.6,1424.6,46.7,1416.5,46.7,1406.4"/>
			<path id="path3353" class="st38" d="M46.9,1406.4c0,10.1-8.2,18.4-18.3,18.4c-10.1,0-18.3-8.2-18.3-18.4s8.2-18.4,18.3-18.4
				C38.7,1388.1,46.9,1396.3,46.9,1406.4z M46.6,1406.4c0-10-8.1-18.1-18-18.1c-9.9,0-18,8.1-18,18.1c0,10,8.1,18.1,18,18.1
				C38.5,1424.5,46.6,1416.4,46.6,1406.4"/>
			<path id="path3355" class="st38" d="M46.7,1406.4c0,10.1-8.1,18.2-18.2,18.2c-10,0-18.2-8.2-18.2-18.2c0-10.1,8.1-18.2,18.2-18.2
				C38.6,1388.2,46.7,1396.4,46.7,1406.4z M46.4,1406.4c0-9.9-8-17.9-17.9-17.9c-9.9,0-17.9,8-17.9,17.9s8,17.9,17.9,17.9
				C38.4,1424.3,46.4,1416.3,46.4,1406.4"/>
			<path id="path3357" class="st38" d="M46.6,1406.4c0,10-8.1,18.1-18,18.1c-9.9,0-18-8.1-18-18.1c0-10,8.1-18.1,18-18.1
				C38.5,1388.4,46.6,1396.5,46.6,1406.4z M46.2,1406.4c0-9.8-7.9-17.7-17.7-17.7c-9.8,0-17.7,7.9-17.7,17.7s7.9,17.7,17.7,17.7
				C38.3,1424.2,46.2,1416.2,46.2,1406.4"/>
			<path id="path3359" class="st38" d="M46.4,1406.4c0,9.9-8,17.9-17.9,17.9c-9.9,0-17.9-8-17.9-17.9s8-17.9,17.9-17.9
				C38.4,1388.5,46.4,1396.5,46.4,1406.4z M46.1,1406.4c0-9.7-7.9-17.6-17.5-17.6c-9.7,0-17.5,7.9-17.5,17.6s7.9,17.6,17.5,17.6
				C38.2,1424,46.1,1416.1,46.1,1406.4"/>
			<path id="path3361" class="st38" d="M46.2,1406.4c0,9.8-7.9,17.7-17.7,17.7c-9.8,0-17.7-7.9-17.7-17.7s7.9-17.7,17.7-17.7
				C38.3,1388.7,46.2,1396.6,46.2,1406.4z M45.9,1406.4c0-9.6-7.8-17.4-17.4-17.4c-9.6,0-17.4,7.8-17.4,17.4s7.8,17.4,17.4,17.4
				C38.1,1423.8,45.9,1416,45.9,1406.4"/>
			<path id="path3363" class="st38" d="M46.1,1406.4c0,9.7-7.9,17.6-17.5,17.6c-9.7,0-17.5-7.9-17.5-17.6c0-9.7,7.9-17.6,17.5-17.6
				C38.2,1388.8,46.1,1396.7,46.1,1406.4z M45.8,1406.4c0-9.5-7.7-17.3-17.2-17.3c-9.5,0-17.2,7.7-17.2,17.3s7.7,17.3,17.2,17.3
				C38.1,1423.7,45.8,1416,45.8,1406.4"/>
			<path id="path3365" class="st38" d="M45.9,1406.4c0,9.6-7.8,17.4-17.4,17.4c-9.6,0-17.4-7.8-17.4-17.4s7.8-17.4,17.4-17.4
				C38.1,1389,45.9,1396.8,45.9,1406.4z M45.6,1406.4c0-9.4-7.6-17.1-17.1-17.1c-9.4,0-17.1,7.7-17.1,17.1c0,9.4,7.6,17.1,17.1,17.1
				C38,1423.5,45.6,1415.9,45.6,1406.4"/>
			<path id="path3367" class="st38" d="M45.8,1406.4c0,9.5-7.7,17.3-17.2,17.3c-9.5,0-17.2-7.7-17.2-17.3s7.7-17.3,17.2-17.3
				C38.1,1389.2,45.8,1396.9,45.8,1406.4z M45.5,1406.4c0-9.4-7.6-17-16.9-17c-9.3,0-16.9,7.6-16.9,17s7.6,17,16.9,17
				C37.9,1423.4,45.5,1415.8,45.5,1406.4"/>
			<path id="path3369" class="st38" d="M45.6,1406.4c0,9.4-7.6,17.1-17.1,17.1c-9.4,0-17.1-7.7-17.1-17.1c0-9.4,7.6-17.1,17.1-17.1
				C38,1389.3,45.6,1397,45.6,1406.4z M45.3,1406.4c0-9.3-7.5-16.8-16.8-16.8c-9.3,0-16.8,7.5-16.8,16.8s7.5,16.8,16.8,16.8
				C37.8,1423.2,45.3,1415.7,45.3,1406.4"/>
			<path id="path3371" class="st38" d="M45.5,1406.4c0,9.4-7.6,17-16.9,17c-9.3,0-16.9-7.6-16.9-17s7.6-17,16.9-17
				C37.9,1389.5,45.5,1397.1,45.5,1406.4z M45.1,1406.4c0-9.2-7.4-16.6-16.6-16.6s-16.6,7.5-16.6,16.6s7.4,16.6,16.6,16.6
				S45.1,1415.6,45.1,1406.4"/>
			<path id="path3373" class="st38" d="M45.3,1406.4c0,9.3-7.5,16.8-16.8,16.8s-16.8-7.5-16.8-16.8s7.5-16.8,16.8-16.8
				S45.3,1397.2,45.3,1406.4z M45,1406.4c0-9.1-7.4-16.5-16.4-16.5c-9.1,0-16.4,7.4-16.4,16.5s7.4,16.5,16.4,16.5
				C37.6,1422.9,45,1415.5,45,1406.4"/>
			<path id="path3375" class="st38" d="M45.1,1406.4c0,9.2-7.4,16.6-16.6,16.6c-9.2,0-16.6-7.5-16.6-16.6c0-9.2,7.4-16.6,16.6-16.6
				C37.7,1389.8,45.1,1397.2,45.1,1406.4z M44.8,1406.4c0-9-7.3-16.3-16.3-16.3c-9,0-16.3,7.3-16.3,16.3c0,9,7.3,16.3,16.3,16.3
				C37.5,1422.8,44.8,1415.4,44.8,1406.4"/>
			<path id="path3377" class="st38" d="M45,1406.4c0,9.1-7.4,16.5-16.4,16.5c-9.1,0-16.4-7.4-16.4-16.5s7.4-16.5,16.4-16.5
				C37.6,1389.9,45,1397.3,45,1406.4z M44.7,1406.4c0-8.9-7.2-16.2-16.1-16.2c-8.9,0-16.1,7.2-16.1,16.2s7.2,16.2,16.1,16.2
				C37.5,1422.6,44.7,1415.4,44.7,1406.4"/>
			<path id="path3379" class="st38" d="M44.8,1406.4c0,9-7.3,16.3-16.3,16.3c-9,0-16.3-7.3-16.3-16.3c0-9,7.3-16.3,16.3-16.3
				C37.5,1390.1,44.8,1397.4,44.8,1406.4z M44.5,1406.4c0-8.8-7.2-16-16-16c-8.8,0-16,7.2-16,16s7.2,16,16,16
				C37.4,1422.4,44.5,1415.3,44.5,1406.4"/>
			<path id="path3381" class="st38" d="M44.7,1406.4c0,8.9-7.2,16.2-16.1,16.2c-8.9,0-16.1-7.2-16.1-16.2s7.2-16.2,16.1-16.2
				C37.5,1390.3,44.7,1397.5,44.7,1406.4z M44.4,1406.4c0-8.8-7.1-15.9-15.8-15.9c-8.7,0-15.8,7.1-15.8,15.9s7.1,15.9,15.8,15.9
				C37.3,1422.3,44.4,1415.2,44.4,1406.4"/>
			<path id="path3383" class="st38" d="M44.5,1406.4c0,8.8-7.2,16-16,16c-8.8,0-16-7.2-16-16s7.2-16,16-16
				C37.4,1390.4,44.5,1397.6,44.5,1406.4z M44.2,1406.4c0-8.7-7-15.7-15.7-15.7s-15.7,7-15.7,15.7c0,8.7,7,15.7,15.7,15.7
				S44.2,1415.1,44.2,1406.4"/>
			<path id="path3385" class="st38" d="M44.4,1406.4c0,8.8-7.1,15.9-15.8,15.9s-15.8-7.1-15.8-15.9c0-8.8,7.1-15.9,15.8-15.9
				S44.4,1397.7,44.4,1406.4z M44,1406.4c0-8.6-6.9-15.5-15.5-15.5s-15.5,7-15.5,15.5S20,1422,28.5,1422S44,1415,44,1406.4"/>
			<path id="path3387" class="st38" d="M44.2,1406.4c0,8.7-7,15.7-15.7,15.7s-15.7-7-15.7-15.7c0-8.7,7-15.7,15.7-15.7
				S44.2,1397.8,44.2,1406.4z M43.9,1406.4c0-8.5-6.9-15.4-15.3-15.4c-8.5,0-15.3,6.9-15.3,15.4c0,8.5,6.9,15.4,15.3,15.4
				C37,1421.8,43.9,1414.9,43.9,1406.4"/>
			<path id="path3389" class="st38" d="M44,1406.4c0,8.6-6.9,15.5-15.5,15.5s-15.5-7-15.5-15.5s6.9-15.5,15.5-15.5
				S44,1397.8,44,1406.4z M43.7,1406.4c0-8.4-6.8-15.2-15.2-15.2c-8.4,0-15.2,6.8-15.2,15.2c0,8.4,6.8,15.2,15.2,15.2
				C36.9,1421.7,43.7,1414.8,43.7,1406.4"/>
			<path id="path3391" class="st38" d="M43.9,1406.4c0,8.5-6.9,15.4-15.3,15.4c-8.5,0-15.3-6.9-15.3-15.4c0-8.5,6.9-15.4,15.3-15.4
				C37,1391,43.9,1397.9,43.9,1406.4z M43.6,1406.4c0-8.3-6.7-15.1-15-15.1c-8.3,0-15,6.7-15,15.1c0,8.3,6.7,15.1,15,15.1
				C36.8,1421.5,43.6,1414.7,43.6,1406.4"/>
			<path id="path3393" class="st38" d="M43.7,1406.4c0,8.4-6.8,15.2-15.2,15.2c-8.4,0-15.2-6.8-15.2-15.2c0-8.4,6.8-15.2,15.2-15.2
				C36.9,1391.2,43.7,1398,43.7,1406.4z M43.4,1406.4c0-8.2-6.7-14.9-14.9-14.9c-8.2,0-14.9,6.7-14.9,14.9c0,8.2,6.7,14.9,14.9,14.9
				C36.8,1421.3,43.4,1414.7,43.4,1406.4"/>
			<path id="path3395" class="st38" d="M43.6,1406.4c0,8.3-6.7,15.1-15,15.1c-8.3,0-15-6.7-15-15.1c0-8.3,6.7-15.1,15-15.1
				C36.8,1391.4,43.6,1398.1,43.6,1406.4z M43.3,1406.4c0-8.1-6.6-14.8-14.7-14.8s-14.7,6.6-14.7,14.8s6.6,14.8,14.7,14.8
				S43.3,1414.6,43.3,1406.4"/>
			<path id="path3397" class="st38" d="M43.4,1406.4c0,8.2-6.7,14.9-14.9,14.9c-8.2,0-14.9-6.7-14.9-14.9c0-8.2,6.7-14.9,14.9-14.9
				C36.8,1391.5,43.4,1398.2,43.4,1406.4z M43.1,1406.4c0-8.1-6.5-14.6-14.6-14.6c-8,0-14.6,6.5-14.6,14.6c0,8.1,6.5,14.6,14.6,14.6
				C36.6,1421,43.1,1414.5,43.1,1406.4"/>
			<path id="path3399" class="st38" d="M43.3,1406.4c0,8.1-6.6,14.8-14.7,14.8s-14.7-6.6-14.7-14.8s6.6-14.8,14.7-14.8
				S43.3,1398.3,43.3,1406.4z M42.9,1406.4c0-8-6.5-14.4-14.4-14.4c-8,0-14.4,6.5-14.4,14.4c0,8,6.5,14.4,14.4,14.4
				C36.5,1420.9,42.9,1414.4,42.9,1406.4"/>
			<path id="path3401" class="st38" d="M43.1,1406.4c0,8.1-6.5,14.6-14.6,14.6c-8,0-14.6-6.5-14.6-14.6c0-8.1,6.5-14.6,14.6-14.6
				C36.6,1391.8,43.1,1398.4,43.1,1406.4z M42.8,1406.4c0-7.9-6.4-14.3-14.2-14.3c-7.9,0-14.2,6.4-14.2,14.3
				c0,7.9,6.4,14.3,14.2,14.3C36.4,1420.7,42.8,1414.3,42.8,1406.4"/>
			<path id="path3403" class="st38" d="M42.9,1406.4c0,8-6.5,14.4-14.4,14.4c-8,0-14.4-6.5-14.4-14.4c0-8,6.5-14.4,14.4-14.4
				C36.5,1392,42.9,1398.5,42.9,1406.4z M42.6,1406.4c0-7.8-6.3-14.1-14.1-14.1c-7.8,0-14.1,6.3-14.1,14.1c0,7.8,6.3,14.1,14.1,14.1
				C36.3,1420.6,42.6,1414.2,42.6,1406.4"/>
			<path id="path3405" class="st38" d="M42.8,1406.4c0,7.9-6.4,14.3-14.2,14.3s-14.2-6.4-14.2-14.3c0-7.9,6.4-14.3,14.2-14.3
				S42.8,1398.5,42.8,1406.4z M42.5,1406.4c0-7.7-6.2-14-13.9-14c-7.7,0-13.9,6.3-13.9,14s6.2,14,13.9,14
				C36.2,1420.4,42.5,1414.1,42.5,1406.4"/>
			<path id="path3407" class="st38" d="M42.6,1406.4c0,7.8-6.3,14.1-14.1,14.1c-7.8,0-14.1-6.3-14.1-14.1c0-7.8,6.3-14.1,14.1-14.1
				C36.3,1392.3,42.6,1398.6,42.6,1406.4z M42.3,1406.4c0-7.6-6.2-13.8-13.8-13.8c-7.6,0-13.8,6.2-13.8,13.8s6.2,13.8,13.8,13.8
				C36.2,1420.2,42.3,1414.1,42.3,1406.4"/>
			<path id="path3409" class="st38" d="M42.5,1406.4c0,7.7-6.2,14-13.9,14c-7.7,0-13.9-6.3-13.9-14s6.2-14,13.9-14
				C36.2,1392.5,42.5,1398.7,42.5,1406.4z M42.2,1406.4c0-7.5-6.1-13.7-13.6-13.7c-7.5,0-13.6,6.1-13.6,13.7s6.1,13.7,13.6,13.7
				C36.1,1420.1,42.2,1414,42.2,1406.4"/>
			<path id="path3411" class="st38" d="M42.3,1406.4c0,7.6-6.2,13.8-13.8,13.8c-7.6,0-13.8-6.2-13.8-13.8s6.2-13.8,13.8-13.8
				C36.2,1392.6,42.3,1398.8,42.3,1406.4z M42,1406.4c0-7.5-6-13.5-13.5-13.5c-7.4,0-13.5,6-13.5,13.5s6,13.5,13.5,13.5
				C36,1419.9,42,1413.9,42,1406.4"/>
			<path id="path3413" class="st38" d="M42.2,1406.4c0,7.5-6.1,13.7-13.6,13.7c-7.5,0-13.6-6.1-13.6-13.7s6.1-13.7,13.6-13.7
				C36.1,1392.8,42.2,1398.9,42.2,1406.4z M41.9,1406.4c0-7.4-6-13.3-13.3-13.3c-7.3,0-13.3,6-13.3,13.3c0,7.4,6,13.3,13.3,13.3
				C35.9,1419.8,41.9,1413.8,41.9,1406.4"/>
			<path id="path3415" class="st38" d="M42,1406.4c0,7.5-6,13.5-13.5,13.5c-7.4,0-13.5-6-13.5-13.5s6-13.5,13.5-13.5
				C36,1392.9,42,1399,42,1406.4z M41.7,1406.4c0-7.3-5.9-13.2-13.2-13.2c-7.3,0-13.2,5.9-13.2,13.2c0,7.3,5.9,13.2,13.2,13.2
				C35.8,1419.6,41.7,1413.7,41.7,1406.4"/>
			<path id="path3417" class="st38" d="M41.9,1406.4c0,7.4-6,13.3-13.3,13.3c-7.3,0-13.3-6-13.3-13.3c0-7.4,6-13.3,13.3-13.3
				C35.9,1393.1,41.9,1399.1,41.9,1406.4z M41.5,1406.4c0-7.2-5.8-13-13-13c-7.2,0-13,5.8-13,13c0,7.2,5.8,13,13,13
				C35.7,1419.5,41.5,1413.6,41.5,1406.4"/>
			<path id="path3419" class="st38" d="M41.7,1406.4c0,7.3-5.9,13.2-13.2,13.2c-7.3,0-13.2-5.9-13.2-13.2c0-7.3,5.9-13.2,13.2-13.2
				C35.8,1393.2,41.7,1399.1,41.7,1406.4z M41.4,1406.4c0-7.1-5.7-12.9-12.8-12.9c-7.1,0-12.8,5.8-12.8,12.9
				c0,7.1,5.7,12.9,12.8,12.9C35.6,1419.3,41.4,1413.5,41.4,1406.4"/>
			<path id="path3421" class="st38" d="M41.5,1406.4c0,7.2-5.8,13-13,13c-7.2,0-13-5.8-13-13c0-7.2,5.8-13,13-13
				C35.7,1393.4,41.5,1399.2,41.5,1406.4z M41.2,1406.4c0-7-5.7-12.7-12.7-12.7c-7,0-12.7,5.7-12.7,12.7c0,7,5.7,12.7,12.7,12.7
				C35.5,1419.1,41.2,1413.4,41.2,1406.4"/>
			<path id="path3423" class="st38" d="M41.4,1406.4c0,7.1-5.7,12.9-12.8,12.9c-7.1,0-12.8-5.8-12.8-12.9c0-7.1,5.7-12.9,12.8-12.9
				C35.6,1393.6,41.4,1399.3,41.4,1406.4z M41.1,1406.4c0-6.9-5.6-12.6-12.5-12.6c-6.9,0-12.5,5.6-12.5,12.6
				c0,6.9,5.6,12.6,12.5,12.6C35.5,1419,41.1,1413.4,41.1,1406.4"/>
			<path id="path3425" class="st38" d="M41.2,1406.4c0,7-5.7,12.7-12.7,12.7c-7,0-12.7-5.7-12.7-12.7c0-7,5.7-12.7,12.7-12.7
				C35.5,1393.7,41.2,1399.4,41.2,1406.4z M40.9,1406.4c0-6.8-5.5-12.4-12.4-12.4c-6.8,0-12.4,5.6-12.4,12.4s5.5,12.4,12.4,12.4
				C35.4,1418.8,40.9,1413.3,40.9,1406.4"/>
			<path id="path3427" class="st38" d="M41.1,1406.4c0,6.9-5.6,12.6-12.5,12.6c-6.9,0-12.5-5.6-12.5-12.6c0-6.9,5.6-12.6,12.5-12.6
				C35.5,1393.9,41.1,1399.5,41.1,1406.4z M40.8,1406.4c0-6.8-5.5-12.2-12.2-12.2c-6.7,0-12.2,5.5-12.2,12.2
				c0,6.8,5.5,12.2,12.2,12.2C35.3,1418.7,40.8,1413.2,40.8,1406.4"/>
			<path id="path3429" class="st38" d="M40.9,1406.4c0,6.8-5.5,12.4-12.4,12.4c-6.8,0-12.4-5.6-12.4-12.4s5.5-12.4,12.4-12.4
				C35.4,1394,40.9,1399.6,40.9,1406.4z M40.6,1406.4c0-6.7-5.4-12.1-12.1-12.1c-6.7,0-12.1,5.4-12.1,12.1c0,6.7,5.4,12.1,12.1,12.1
				C35.2,1418.5,40.6,1413.1,40.6,1406.4"/>
			<path id="path3431" class="st38" d="M40.8,1406.4c0,6.8-5.5,12.2-12.2,12.2c-6.7,0-12.2-5.5-12.2-12.2c0-6.8,5.5-12.2,12.2-12.2
				C35.3,1394.2,40.8,1399.7,40.8,1406.4z M40.4,1406.4c0-6.6-5.3-11.9-11.9-11.9c-6.6,0-11.9,5.3-11.9,11.9
				c0,6.6,5.3,11.9,11.9,11.9C35.1,1418.4,40.4,1413,40.4,1406.4"/>
			<path id="path3433" class="st38" d="M40.6,1406.4c0,6.7-5.4,12.1-12.1,12.1c-6.7,0-12.1-5.4-12.1-12.1c0-6.7,5.4-12.1,12.1-12.1
				C35.2,1394.3,40.6,1399.8,40.6,1406.4z M40.3,1406.4c0-6.5-5.3-11.8-11.7-11.8s-11.7,5.3-11.7,11.8c0,6.5,5.3,11.8,11.7,11.8
				S40.3,1412.9,40.3,1406.4"/>
			<path id="path3435" class="st38" d="M40.4,1406.4c0,6.6-5.3,11.9-11.9,11.9c-6.6,0-11.9-5.3-11.9-11.9c0-6.6,5.3-11.9,11.9-11.9
				C35.1,1394.5,40.4,1399.8,40.4,1406.4z M40.1,1406.4c0-6.4-5.2-11.6-11.6-11.6c-6.4,0-11.6,5.2-11.6,11.6
				c0,6.4,5.2,11.6,11.6,11.6C34.9,1418,40.1,1412.8,40.1,1406.4"/>
			<path id="path3437" class="st38" d="M40.3,1406.4c0,6.5-5.3,11.8-11.7,11.8c-6.5,0-11.7-5.3-11.7-11.8s5.3-11.8,11.7-11.8
				C35,1394.7,40.3,1399.9,40.3,1406.4z M40,1406.4c0-6.3-5.1-11.5-11.4-11.5c-6.3,0-11.4,5.1-11.4,11.5s5.1,11.5,11.4,11.5
				C34.9,1417.9,40,1412.8,40,1406.4"/>
			<path id="path3439" class="st38" d="M40.1,1406.4c0,6.4-5.2,11.6-11.6,11.6c-6.4,0-11.6-5.2-11.6-11.6c0-6.4,5.2-11.6,11.6-11.6
				C34.9,1394.8,40.1,1400,40.1,1406.4z M39.8,1406.4c0-6.2-5-11.3-11.3-11.3c-6.2,0-11.3,5.1-11.3,11.3s5,11.3,11.3,11.3
				C34.8,1417.7,39.8,1412.7,39.8,1406.4"/>
			<path id="path3441" class="st38" d="M40,1406.4c0,6.3-5.1,11.5-11.4,11.5c-6.3,0-11.4-5.1-11.4-11.5s5.1-11.5,11.4-11.5
				C34.9,1395,40,1400.1,40,1406.4z M39.7,1406.4c0-6.2-5-11.1-11.1-11.1c-6.1,0-11.1,5-11.1,11.1c0,6.2,5,11.1,11.1,11.1
				C34.7,1417.6,39.7,1412.6,39.7,1406.4"/>
			<path id="path3443" class="st38" d="M39.8,1406.4c0,6.2-5,11.3-11.3,11.3c-6.2,0-11.3-5.1-11.3-11.3s5-11.3,11.3-11.3
				C34.8,1395.1,39.8,1400.2,39.8,1406.4z M39.5,1406.4c0-6.1-4.9-11-11-11s-11,4.9-11,11c0,6.1,4.9,11,11,11
				S39.5,1412.5,39.5,1406.4"/>
			<path id="path3445" class="st38" d="M39.7,1406.4c0,6.2-5,11.1-11.1,11.1c-6.1,0-11.1-5-11.1-11.1c0-6.2,5-11.1,11.1-11.1
				C34.7,1395.3,39.7,1400.3,39.7,1406.4z M39.3,1406.4c0-6-4.8-10.8-10.8-10.8c-6,0-10.8,4.8-10.8,10.8c0,6,4.8,10.8,10.8,10.8
				C34.5,1417.3,39.3,1412.4,39.3,1406.4"/>
			<path id="path3447" class="st38" d="M39.5,1406.4c0,6.1-4.9,11-11,11s-11-4.9-11-11c0-6.1,4.9-11,11-11S39.5,1400.4,39.5,1406.4z
				 M39.2,1406.4c0-5.9-4.8-10.7-10.6-10.7c-5.9,0-10.6,4.8-10.6,10.7c0,5.9,4.8,10.7,10.6,10.7
				C34.4,1417.1,39.2,1412.3,39.2,1406.4"/>
			<path id="path3449" class="st38" d="M39.3,1406.4c0,6-4.8,10.8-10.8,10.8c-6,0-10.8-4.8-10.8-10.8c0-6,4.8-10.8,10.8-10.8
				C34.5,1395.6,39.3,1400.4,39.3,1406.4z M39,1406.4c0-5.8-4.7-10.5-10.5-10.5c-5.8,0-10.5,4.7-10.5,10.5c0,5.8,4.7,10.5,10.5,10.5
				C34.3,1416.9,39,1412.2,39,1406.4"/>
			<path id="path3451" class="st38" d="M39.2,1406.4c0,5.9-4.8,10.7-10.6,10.7c-5.9,0-10.6-4.8-10.6-10.7c0-5.9,4.8-10.7,10.6-10.7
				C34.4,1395.8,39.2,1400.5,39.2,1406.4z M38.9,1406.4c0-5.7-4.6-10.4-10.3-10.4c-5.7,0-10.3,4.6-10.3,10.4s4.6,10.4,10.3,10.4
				C34.3,1416.8,38.9,1412.1,38.9,1406.4"/>
			<path id="path3453" class="st38" d="M39,1406.4c0,5.8-4.7,10.5-10.5,10.5c-5.8,0-10.5-4.7-10.5-10.5c0-5.8,4.7-10.5,10.5-10.5
				C34.3,1395.9,39,1400.6,39,1406.4z M38.7,1406.4c0-5.6-4.6-10.2-10.2-10.2s-10.2,4.6-10.2,10.2s4.6,10.2,10.2,10.2
				S38.7,1412.1,38.7,1406.4"/>
			<path id="path3455" class="st38" d="M38.9,1406.4c0,5.7-4.6,10.4-10.3,10.4s-10.3-4.6-10.3-10.4c0-5.7,4.6-10.4,10.3-10.4
				S38.9,1400.7,38.9,1406.4z M38.6,1406.4c0-5.5-4.5-10-10-10c-5.5,0-10,4.5-10,10c0,5.5,4.5,10,10,10
				C34.1,1416.5,38.6,1412,38.6,1406.4"/>
			<path id="path3457" class="st39" d="M38.7,1406.4c0,5.6-4.6,10.2-10.2,10.2s-10.2-4.6-10.2-10.2s4.6-10.2,10.2-10.2
				S38.7,1400.8,38.7,1406.4z M38.4,1406.4c0-5.5-4.4-9.9-9.9-9.9c-5.4,0-9.9,4.4-9.9,9.9c0,5.5,4.4,9.9,9.9,9.9
				C34,1416.3,38.4,1411.9,38.4,1406.4"/>
			<path id="path3459" class="st40" d="M38.6,1406.4c0,5.5-4.5,10-10,10c-5.5,0-10-4.5-10-10c0-5.5,4.5-10,10-10
				C34.1,1396.4,38.6,1400.9,38.6,1406.4z M38.3,1406.4c0-5.4-4.3-9.7-9.7-9.7s-9.7,4.4-9.7,9.7s4.3,9.7,9.7,9.7
				S38.3,1411.8,38.3,1406.4"/>
			<path id="path3461" class="st41" d="M38.4,1406.4c0,5.5-4.4,9.9-9.9,9.9c-5.4,0-9.9-4.4-9.9-9.9c0-5.5,4.4-9.9,9.9-9.9
				C34,1396.5,38.4,1401,38.4,1406.4z M38.1,1406.4c0-5.3-4.3-9.6-9.6-9.6s-9.6,4.3-9.6,9.6c0,5.3,4.3,9.6,9.6,9.6
				S38.1,1411.7,38.1,1406.4"/>
			<path id="path3463" class="st42" d="M38.3,1406.4c0,5.4-4.3,9.7-9.7,9.7s-9.7-4.4-9.7-9.7s4.3-9.7,9.7-9.7
				S38.3,1401.1,38.3,1406.4z M37.9,1406.4c0-5.2-4.2-9.4-9.4-9.4c-5.2,0-9.4,4.2-9.4,9.4c0,5.2,4.2,9.4,9.4,9.4
				C33.7,1415.8,37.9,1411.6,37.9,1406.4"/>
			<path id="path3465" class="st43" d="M38.1,1406.4c0,5.3-4.3,9.6-9.6,9.6s-9.6-4.3-9.6-9.6c0-5.3,4.3-9.6,9.6-9.6
				S38.1,1401.1,38.1,1406.4z M37.8,1406.4c0-5.1-4.1-9.3-9.2-9.3c-5.1,0-9.2,4.1-9.2,9.3s4.1,9.3,9.2,9.3
				C33.6,1415.7,37.8,1411.5,37.8,1406.4"/>
			<path id="path3467" class="st44" d="M37.9,1406.4c0,5.2-4.2,9.4-9.4,9.4s-9.4-4.2-9.4-9.4c0-5.2,4.2-9.4,9.4-9.4
				S37.9,1401.2,37.9,1406.4z M37.6,1406.4c0-5-4.1-9.1-9.1-9.1c-5,0-9.1,4.1-9.1,9.1s4.1,9.1,9.1,9.1
				C33.6,1415.5,37.6,1411.5,37.6,1406.4"/>
			<path id="path3469" class="st45" d="M37.8,1406.4c0,5.1-4.1,9.3-9.2,9.3c-5.1,0-9.2-4.1-9.2-9.3s4.1-9.3,9.2-9.3
				C33.6,1397.2,37.8,1401.3,37.8,1406.4z M37.5,1406.4c0-4.9-4-8.9-8.9-8.9c-4.9,0-8.9,4-8.9,8.9s4,8.9,8.9,8.9
				C33.5,1415.4,37.5,1411.4,37.5,1406.4"/>
			<path id="path3471" class="st46" d="M37.6,1406.4c0,5-4.1,9.1-9.1,9.1c-5,0-9.1-4.1-9.1-9.1s4.1-9.1,9.1-9.1
				C33.6,1397.3,37.6,1401.4,37.6,1406.4z M37.3,1406.4c0-4.9-3.9-8.8-8.8-8.8s-8.8,3.9-8.8,8.8s3.9,8.8,8.8,8.8
				S37.3,1411.3,37.3,1406.4"/>
			<path id="path3473" class="st47" d="M37.5,1406.4c0,4.9-4,8.9-8.9,8.9c-4.9,0-8.9-4-8.9-8.9s4-8.9,8.9-8.9
				C33.5,1397.5,37.5,1401.5,37.5,1406.4z M37.2,1406.4c0-4.8-3.9-8.6-8.6-8.6c-4.8,0-8.6,3.9-8.6,8.6s3.9,8.6,8.6,8.6
				C33.3,1415.1,37.2,1411.2,37.2,1406.4"/>
			<path id="path3475" class="st48" d="M37.3,1406.4c0,4.9-3.9,8.8-8.8,8.8c-4.8,0-8.8-3.9-8.8-8.8s3.9-8.8,8.8-8.8
				C33.4,1397.6,37.3,1401.6,37.3,1406.4z M37,1406.4c0-4.7-3.8-8.5-8.5-8.5c-4.7,0-8.5,3.8-8.5,8.5s3.8,8.5,8.5,8.5
				C33.2,1414.9,37,1411.1,37,1406.4"/>
			<path id="path3477" class="st49" d="M37.2,1406.4c0,4.8-3.9,8.6-8.6,8.6c-4.8,0-8.6-3.9-8.6-8.6s3.9-8.6,8.6-8.6
				C33.3,1397.8,37.2,1401.7,37.2,1406.4z M36.8,1406.4c0-4.6-3.7-8.3-8.3-8.3c-4.6,0-8.3,3.7-8.3,8.3s3.7,8.3,8.3,8.3
				C33.1,1414.7,36.8,1411,36.8,1406.4"/>
			<path id="path3479" class="st50" d="M37,1406.4c0,4.7-3.8,8.5-8.5,8.5c-4.7,0-8.5-3.8-8.5-8.5s3.8-8.5,8.5-8.5
				C33.2,1397.9,37,1401.7,37,1406.4z M36.7,1406.4c0-4.5-3.6-8.2-8.1-8.2c-4.5,0-8.1,3.7-8.1,8.2s3.6,8.2,8.1,8.2
				C33,1414.6,36.7,1410.9,36.7,1406.4"/>
			<path id="path3481" class="st51" d="M36.8,1406.4c0,4.6-3.7,8.3-8.3,8.3c-4.6,0-8.3-3.7-8.3-8.3s3.7-8.3,8.3-8.3
				C33.1,1398.1,36.8,1401.8,36.8,1406.4z M36.5,1406.4c0-4.4-3.6-8-8-8c-4.4,0-8,3.6-8,8s3.6,8,8,8
				C33,1414.4,36.5,1410.8,36.5,1406.4"/>
			<path id="path3483" class="st52" d="M36.7,1406.4c0,4.5-3.6,8.2-8.1,8.2c-4.5,0-8.1-3.7-8.1-8.2s3.6-8.2,8.1-8.2
				C33,1398.3,36.7,1401.9,36.7,1406.4z M36.4,1406.4c0-4.3-3.5-7.8-7.8-7.8c-4.3,0-7.8,3.5-7.8,7.8s3.5,7.8,7.8,7.8
				C32.9,1414.3,36.4,1410.8,36.4,1406.4"/>
			<path id="path3485" class="st53" d="M36.5,1406.4c0,4.4-3.6,8-8,8c-4.4,0-8-3.6-8-8s3.6-8,8-8C33,1398.4,36.5,1402,36.5,1406.4z
				 M36.2,1406.4c0-4.2-3.4-7.7-7.7-7.7c-4.2,0-7.7,3.4-7.7,7.7c0,4.2,3.4,7.7,7.7,7.7C32.8,1414.1,36.2,1410.7,36.2,1406.4"/>
			<path id="path3487" class="st54" d="M36.4,1406.4c0,4.3-3.5,7.8-7.8,7.8c-4.3,0-7.8-3.5-7.8-7.8s3.5-7.8,7.8-7.8
				C32.9,1398.6,36.4,1402.1,36.4,1406.4z M36.1,1406.4c0-4.2-3.4-7.5-7.5-7.5c-4.2,0-7.5,3.4-7.5,7.5s3.4,7.5,7.5,7.5
				C32.7,1414,36.1,1410.6,36.1,1406.4"/>
			<path id="path3489" class="st55" d="M36.2,1406.4c0,4.2-3.4,7.7-7.7,7.7c-4.2,0-7.7-3.4-7.7-7.7c0-4.2,3.4-7.7,7.7-7.7
				C32.8,1398.7,36.2,1402.2,36.2,1406.4z M35.9,1406.4c0-4.1-3.3-7.4-7.4-7.4c-4.1,0-7.4,3.3-7.4,7.4c0,4.1,3.3,7.4,7.4,7.4
				C32.6,1413.8,35.9,1410.5,35.9,1406.4"/>
			<path id="path3491" class="st56" d="M36.1,1406.4c0,4.2-3.4,7.5-7.5,7.5c-4.2,0-7.5-3.4-7.5-7.5s3.4-7.5,7.5-7.5
				C32.7,1398.9,36.1,1402.3,36.1,1406.4z M35.7,1406.4c0-4-3.2-7.2-7.2-7.2c-4,0-7.2,3.2-7.2,7.2c0,4,3.2,7.2,7.2,7.2
				C32.5,1413.6,35.7,1410.4,35.7,1406.4"/>
			<path id="path3493" class="st57" d="M35.9,1406.4c0,4.1-3.3,7.4-7.4,7.4c-4.1,0-7.4-3.3-7.4-7.4c0-4.1,3.3-7.4,7.4-7.4
				C32.6,1399,35.9,1402.4,35.9,1406.4z M35.6,1406.4c0-3.9-3.2-7.1-7-7.1s-7,3.2-7,7.1s3.2,7.1,7,7.1S35.6,1410.3,35.6,1406.4"/>
			<path id="path3495" class="st58" d="M35.7,1406.4c0,4-3.2,7.2-7.2,7.2c-4,0-7.2-3.2-7.2-7.2c0-4,3.2-7.2,7.2-7.2
				C32.5,1399.2,35.7,1402.4,35.7,1406.4z M35.4,1406.4c0-3.8-3.1-6.9-6.9-6.9c-3.8,0-6.9,3.1-6.9,6.9s3.1,6.9,6.9,6.9
				C32.3,1413.3,35.4,1410.2,35.4,1406.4"/>
			<path id="path3497" class="st59" d="M35.6,1406.4c0,3.9-3.2,7.1-7,7.1s-7-3.2-7-7.1c0-3.9,3.2-7.1,7-7.1S35.6,1402.5,35.6,1406.4
				z M35.3,1406.4c0-3.7-3-6.7-6.7-6.7c-3.7,0-6.7,3-6.7,6.7s3,6.7,6.7,6.7C32.3,1413.2,35.3,1410.2,35.3,1406.4"/>
			<path id="path3499" class="st60" d="M35.4,1406.4c0,3.8-3.1,6.9-6.9,6.9c-3.8,0-6.9-3.1-6.9-6.9s3.1-6.9,6.9-6.9
				C32.3,1399.5,35.4,1402.6,35.4,1406.4z M35.1,1406.4c0-3.6-2.9-6.6-6.6-6.6c-3.6,0-6.6,3-6.6,6.6c0,3.6,2.9,6.6,6.6,6.6
				C32.2,1413,35.1,1410.1,35.1,1406.4"/>
			<path id="path3501" class="st61" d="M35.3,1406.4c0,3.7-3,6.7-6.7,6.7c-3.7,0-6.7-3-6.7-6.7s3-6.7,6.7-6.7
				C32.3,1399.7,35.3,1402.7,35.3,1406.4z M35,1406.4c0-3.6-2.9-6.4-6.4-6.4c-3.5,0-6.4,2.9-6.4,6.4s2.9,6.4,6.4,6.4
				C32.1,1412.9,35,1410,35,1406.4"/>
			<path id="path3503" class="st61" d="M35.1,1406.4c0,3.6-2.9,6.6-6.6,6.6c-3.6,0-6.6-3-6.6-6.6c0-3.6,2.9-6.6,6.6-6.6
				C32.2,1399.8,35.1,1402.8,35.1,1406.4z M34.8,1406.4c0-3.5-2.8-6.3-6.3-6.3c-3.5,0-6.3,2.8-6.3,6.3c0,3.5,2.8,6.3,6.3,6.3
				C32,1412.7,34.8,1409.9,34.8,1406.4"/>
			<path id="path3505" class="st62" d="M35,1406.4c0,3.6-2.9,6.4-6.4,6.4c-3.5,0-6.4-2.9-6.4-6.4s2.9-6.4,6.4-6.4
				C32.1,1400,35,1402.9,35,1406.4z M34.7,1406.4c0-3.4-2.7-6.1-6.1-6.1c-3.4,0-6.1,2.7-6.1,6.1s2.7,6.1,6.1,6.1
				C31.9,1412.5,34.7,1409.8,34.7,1406.4"/>
			<path id="path3507" class="st63" d="M34.8,1406.4c0,3.5-2.8,6.3-6.3,6.3c-3.5,0-6.3-2.8-6.3-6.3s2.8-6.3,6.3-6.3
				C32,1400.1,34.8,1403,34.8,1406.4z M34.5,1406.4c0-3.3-2.7-6-6-6c-3.3,0-5.9,2.7-5.9,6c0,3.3,2.7,6,5.9,6
				C31.8,1412.4,34.5,1409.7,34.5,1406.4"/>
			<path id="path3509" class="st63" d="M34.7,1406.4c0,3.4-2.7,6.1-6.1,6.1c-3.4,0-6.1-2.7-6.1-6.1s2.7-6.1,6.1-6.1
				C31.9,1400.3,34.7,1403,34.7,1406.4z M34.3,1406.4c0-3.2-2.6-5.8-5.8-5.8c-3.2,0-5.8,2.6-5.8,5.8c0,3.2,2.6,5.8,5.8,5.8
				C31.7,1412.2,34.3,1409.6,34.3,1406.4"/>
			<path id="path3511" class="st64" d="M34.5,1406.4c0,3.3-2.7,6-6,6c-3.3,0-5.9-2.7-5.9-6c0-3.3,2.7-6,5.9-6
				C31.8,1400.5,34.5,1403.1,34.5,1406.4z M34.2,1406.4c0-3.1-2.5-5.7-5.6-5.7c-3.1,0-5.6,2.5-5.6,5.7s2.5,5.7,5.6,5.7
				C31.7,1412.1,34.2,1409.5,34.2,1406.4"/>
			<path id="path3513" class="st65" d="M34.3,1406.4c0,3.2-2.6,5.8-5.8,5.8c-3.2,0-5.8-2.6-5.8-5.8c0-3.2,2.6-5.8,5.8-5.8
				C31.7,1400.6,34.3,1403.2,34.3,1406.4z M34,1406.4c0-3-2.5-5.5-5.5-5.5c-3,0-5.5,2.5-5.5,5.5s2.5,5.5,5.5,5.5
				C31.6,1411.9,34,1409.5,34,1406.4"/>
			<path id="path3515" class="st66" d="M34.2,1406.4c0,3.1-2.5,5.7-5.6,5.7c-3.1,0-5.6-2.5-5.6-5.7s2.5-5.7,5.6-5.7
				C31.7,1400.8,34.2,1403.3,34.2,1406.4z M33.9,1406.4c0-2.9-2.4-5.3-5.3-5.3c-2.9,0-5.3,2.4-5.3,5.3s2.4,5.3,5.3,5.3
				C31.5,1411.8,33.9,1409.4,33.9,1406.4"/>
			<path id="path3517" class="st67" d="M34,1406.4c0,3-2.5,5.5-5.5,5.5c-3,0-5.5-2.5-5.5-5.5s2.5-5.5,5.5-5.5
				C31.6,1400.9,34,1403.4,34,1406.4z M33.7,1406.4c0-2.9-2.3-5.2-5.2-5.2c-2.9,0-5.2,2.3-5.2,5.2s2.3,5.2,5.2,5.2
				C31.4,1411.6,33.7,1409.3,33.7,1406.4"/>
			<path id="path3519" class="st68" d="M33.9,1406.4c0,2.9-2.4,5.3-5.3,5.3c-2.9,0-5.3-2.4-5.3-5.3s2.4-5.3,5.3-5.3
				C31.5,1401.1,33.9,1403.5,33.9,1406.4z M33.6,1406.4c0-2.8-2.2-5-5-5c-2.8,0-5,2.2-5,5c0,2.8,2.2,5,5,5
				C31.3,1411.4,33.6,1409.2,33.6,1406.4"/>
			<path id="path3521" class="st69" d="M33.7,1406.4c0,2.9-2.3,5.2-5.2,5.2c-2.9,0-5.2-2.3-5.2-5.2s2.3-5.2,5.2-5.2
				C31.4,1401.2,33.7,1403.6,33.7,1406.4z M33.4,1406.4c0-2.7-2.2-4.9-4.9-4.9s-4.9,2.2-4.9,4.9c0,2.7,2.2,4.9,4.9,4.9
				S33.4,1409.1,33.4,1406.4"/>
			<path id="path3523" class="st70" d="M33.6,1406.4c0,2.8-2.2,5-5,5c-2.8,0-5-2.2-5-5c0-2.8,2.2-5,5-5
				C31.3,1401.4,33.6,1403.7,33.6,1406.4z M33.2,1406.4c0-2.6-2.1-4.7-4.7-4.7s-4.7,2.1-4.7,4.7c0,2.6,2.1,4.7,4.7,4.7
				S33.2,1409,33.2,1406.4"/>
			<path id="path3525" class="st71" d="M33.4,1406.4c0,2.7-2.2,4.9-4.9,4.9s-4.9-2.2-4.9-4.9c0-2.7,2.2-4.9,4.9-4.9
				S33.4,1403.7,33.4,1406.4z M33.1,1406.4c0-2.5-2-4.6-4.5-4.6s-4.5,2-4.5,4.6c0,2.5,2,4.6,4.5,4.6S33.1,1408.9,33.1,1406.4"/>
			<path id="path3527" class="st72" d="M33.2,1406.4c0,2.6-2.1,4.7-4.7,4.7s-4.7-2.1-4.7-4.7c0-2.6,2.1-4.7,4.7-4.7
				S33.2,1403.8,33.2,1406.4z M32.9,1406.4c0-2.4-2-4.4-4.4-4.4c-2.4,0-4.4,2-4.4,4.4c0,2.4,2,4.4,4.4,4.4
				C31,1410.8,32.9,1408.9,32.9,1406.4"/>
			<path id="path3529" class="st73" d="M33.1,1406.4c0,2.5-2,4.6-4.5,4.6s-4.5-2-4.5-4.6c0-2.5,2-4.6,4.5-4.6
				S33.1,1403.9,33.1,1406.4z M32.8,1406.4c0-2.3-1.9-4.2-4.2-4.2c-2.3,0-4.2,1.9-4.2,4.2s1.9,4.2,4.2,4.2
				C30.9,1410.7,32.8,1408.8,32.8,1406.4"/>
			<path id="path3531" class="st74" d="M32.9,1406.4c0,2.4-2,4.4-4.4,4.4c-2.4,0-4.4-2-4.4-4.4c0-2.4,2-4.4,4.4-4.4
				C31,1402,32.9,1404,32.9,1406.4z M32.6,1406.4c0-2.3-1.8-4.1-4.1-4.1c-2.2,0-4.1,1.8-4.1,4.1s1.8,4.1,4.1,4.1
				C30.8,1410.5,32.6,1408.7,32.6,1406.4"/>
			<path id="path3533" class="st75" d="M32.8,1406.4c0,2.3-1.9,4.2-4.2,4.2c-2.3,0-4.2-1.9-4.2-4.2s1.9-4.2,4.2-4.2
				C30.9,1402.2,32.8,1404.1,32.8,1406.4z M32.5,1406.4c0-2.2-1.8-3.9-3.9-3.9s-3.9,1.8-3.9,3.9s1.8,3.9,3.9,3.9
				S32.5,1408.6,32.5,1406.4"/>
			<path id="path3535" class="st76" d="M32.6,1406.4c0,2.3-1.8,4.1-4.1,4.1c-2.2,0-4.1-1.8-4.1-4.1s1.8-4.1,4.1-4.1
				C30.8,1402.3,32.6,1404.2,32.6,1406.4z M32.3,1406.4c0-2.1-1.7-3.8-3.8-3.8c-2.1,0-3.8,1.7-3.8,3.8c0,2.1,1.7,3.8,3.8,3.8
				C30.6,1410.2,32.3,1408.5,32.3,1406.4"/>
			<path id="path3537" class="st77" d="M32.5,1406.4c0,2.2-1.8,3.9-3.9,3.9c-2.2,0-3.9-1.8-3.9-3.9c0-2.2,1.8-3.9,3.9-3.9
				C30.7,1402.5,32.5,1404.3,32.5,1406.4z M32.1,1406.4c0-2-1.6-3.6-3.6-3.6c-2,0-3.6,1.6-3.6,3.6c0,2,1.6,3.6,3.6,3.6
				C30.5,1410,32.1,1408.4,32.1,1406.4"/>
			<path id="path3539" class="st78" d="M32.3,1406.4c0,2.1-1.7,3.8-3.8,3.8c-2.1,0-3.8-1.7-3.8-3.8c0-2.1,1.7-3.8,3.8-3.8
				C30.6,1402.7,32.3,1404.3,32.3,1406.4z M32,1406.4c0-1.9-1.5-3.5-3.4-3.5c-1.9,0-3.4,1.5-3.4,3.5c0,1.9,1.5,3.5,3.4,3.5
				C30.4,1409.9,32,1408.3,32,1406.4"/>
			<path id="path3541" class="st79" d="M32.1,1406.4c0,2-1.6,3.6-3.6,3.6c-2,0-3.6-1.6-3.6-3.6c0-2,1.6-3.6,3.6-3.6
				C30.5,1402.8,32.1,1404.4,32.1,1406.4z M31.8,1406.4c0-1.8-1.5-3.3-3.3-3.3c-1.8,0-3.3,1.5-3.3,3.3c0,1.8,1.5,3.3,3.3,3.3
				C30.4,1409.7,31.8,1408.2,31.8,1406.4"/>
			<path id="path3543" class="st80" d="M32,1406.4c0,1.9-1.5,3.5-3.4,3.5c-1.9,0-3.4-1.5-3.4-3.5c0-1.9,1.5-3.5,3.4-3.5
				C30.4,1403,32,1404.5,32,1406.4z M31.7,1406.4c0-1.7-1.4-3.1-3.1-3.1c-1.7,0-3.1,1.4-3.1,3.1s1.4,3.1,3.1,3.1
				C30.3,1409.6,31.7,1408.2,31.7,1406.4"/>
			<path id="path3545" class="st81" d="M31.8,1406.4c0,1.8-1.5,3.3-3.3,3.3c-1.8,0-3.3-1.5-3.3-3.3c0-1.8,1.5-3.3,3.3-3.3
				C30.4,1403.1,31.8,1404.6,31.8,1406.4z M31.5,1406.4c0-1.6-1.3-3-3-3c-1.6,0-3,1.3-3,3c0,1.6,1.3,3,3,3
				C30.2,1409.4,31.5,1408.1,31.5,1406.4"/>
			<path id="path3547" class="st81" d="M31.7,1406.4c0,1.7-1.4,3.1-3.1,3.1c-1.7,0-3.1-1.4-3.1-3.1s1.4-3.1,3.1-3.1
				C30.3,1403.3,31.7,1404.7,31.7,1406.4z M31.4,1406.4c0-1.6-1.3-2.8-2.8-2.8c-1.6,0-2.8,1.3-2.8,2.8c0,1.6,1.3,2.8,2.8,2.8
				C30.1,1409.3,31.4,1408,31.4,1406.4"/>
			<path id="path3549" class="st82" d="M31.5,1406.4c0,1.6-1.3,3-3,3c-1.6,0-3-1.3-3-3s1.3-3,3-3
				C30.2,1403.4,31.5,1404.8,31.5,1406.4z M31.2,1406.4c0-1.5-1.2-2.7-2.7-2.7c-1.5,0-2.7,1.2-2.7,2.7s1.2,2.7,2.7,2.7
				C30,1409.1,31.2,1407.9,31.2,1406.4"/>
			<path id="path3551" class="st83" d="M31.4,1406.4c0,1.6-1.3,2.8-2.8,2.8c-1.6,0-2.8-1.3-2.8-2.8c0-1.6,1.3-2.8,2.8-2.8
				C30.1,1403.6,31.4,1404.9,31.4,1406.4z M31,1406.4c0-1.4-1.1-2.5-2.5-2.5c-1.4,0-2.5,1.1-2.5,2.5c0,1.4,1.1,2.5,2.5,2.5
				C29.9,1408.9,31,1407.8,31,1406.4"/>
			<path id="path3553" class="st84" d="M31.2,1406.4c0,1.5-1.2,2.7-2.7,2.7c-1.5,0-2.7-1.2-2.7-2.7s1.2-2.7,2.7-2.7
				C30,1403.8,31.2,1405,31.2,1406.4z M30.9,1406.4c0-1.3-1.1-2.4-2.3-2.4c-1.3,0-2.3,1.1-2.3,2.4c0,1.3,1.1,2.4,2.3,2.4
				C29.8,1408.8,30.9,1407.7,30.9,1406.4"/>
			<path id="path3555" class="st84" d="M31,1406.4c0,1.4-1.1,2.5-2.5,2.5c-1.4,0-2.5-1.1-2.5-2.5c0-1.4,1.1-2.5,2.5-2.5
				C29.9,1403.9,31,1405,31,1406.4z M30.7,1406.4c0-1.2-1-2.2-2.2-2.2c-1.2,0-2.2,1-2.2,2.2c0,1.2,1,2.2,2.2,2.2
				C29.8,1408.6,30.7,1407.6,30.7,1406.4"/>
			<path id="path3557" class="st85" d="M30.9,1406.4c0,1.3-1.1,2.4-2.3,2.4c-1.3,0-2.3-1.1-2.3-2.4c0-1.3,1.1-2.4,2.3-2.4
				C29.8,1404.1,30.9,1405.1,30.9,1406.4z M30.6,1406.4c0-1.1-0.9-2-2-2c-1.1,0-2,0.9-2,2c0,1.1,0.9,2,2,2
				C29.7,1408.5,30.6,1407.6,30.6,1406.4"/>
			<path id="path3559" class="st86" d="M30.7,1406.4c0,1.2-1,2.2-2.2,2.2c-1.2,0-2.2-1-2.2-2.2c0-1.2,1-2.2,2.2-2.2
				C29.8,1404.2,30.7,1405.2,30.7,1406.4z M30.4,1406.4c0-1-0.8-1.9-1.9-1.9c-1,0-1.9,0.8-1.9,1.9c0,1,0.8,1.9,1.9,1.9
				C29.6,1408.3,30.4,1407.5,30.4,1406.4"/>
			<path id="path3561" class="st87" d="M30.6,1406.4c0,1.1-0.9,2-2,2c-1.1,0-2-0.9-2-2c0-1.1,0.9-2,2-2
				C29.7,1404.4,30.6,1405.3,30.6,1406.4z M30.3,1406.4c0-1-0.8-1.7-1.7-1.7c-1,0-1.7,0.8-1.7,1.7s0.8,1.7,1.7,1.7
				C29.5,1408.2,30.3,1407.4,30.3,1406.4"/>
			<path id="path3563" class="st88" d="M30.4,1406.4c0,1-0.8,1.9-1.9,1.9c-1,0-1.9-0.8-1.9-1.9c0-1,0.8-1.9,1.9-1.9
				C29.6,1404.5,30.4,1405.4,30.4,1406.4z M30.1,1406.4c0-0.9-0.7-1.6-1.6-1.6c-0.9,0-1.6,0.7-1.6,1.6s0.7,1.6,1.6,1.6
				C29.4,1408,30.1,1407.3,30.1,1406.4"/>
			<path id="path3565" class="st89" d="M30.3,1406.4c0,1-0.8,1.7-1.7,1.7c-1,0-1.7-0.8-1.7-1.7s0.8-1.7,1.7-1.7
				C29.5,1404.7,30.3,1405.5,30.3,1406.4z M30,1406.4c0-0.8-0.6-1.4-1.4-1.4c-0.8,0-1.4,0.6-1.4,1.4s0.6,1.4,1.4,1.4
				C29.3,1407.8,30,1407.2,30,1406.4"/>
			<path id="path3567" class="st89" d="M30.1,1406.4c0,0.9-0.7,1.6-1.6,1.6c-0.9,0-1.6-0.7-1.6-1.6s0.7-1.6,1.6-1.6
				C29.4,1404.9,30.1,1405.6,30.1,1406.4z M29.8,1406.4c0-0.7-0.6-1.3-1.3-1.3c-0.7,0-1.3,0.6-1.3,1.3c0,0.7,0.6,1.3,1.3,1.3
				C29.2,1407.7,29.8,1407.1,29.8,1406.4"/>
			<path id="path3569" class="st90" d="M30,1406.4c0,0.8-0.6,1.4-1.4,1.4c-0.8,0-1.4-0.6-1.4-1.4s0.6-1.4,1.4-1.4
				C29.3,1405,30,1405.6,30,1406.4z M29.6,1406.4c0-0.6-0.5-1.1-1.1-1.1c-0.6,0-1.1,0.5-1.1,1.1s0.5,1.1,1.1,1.1
				C29.1,1407.5,29.6,1407,29.6,1406.4"/>
			<path id="path3571" class="st91" d="M29.8,1406.4c0,0.7-0.6,1.3-1.3,1.3c-0.7,0-1.3-0.6-1.3-1.3c0-0.7,0.6-1.3,1.3-1.3
				C29.2,1405.2,29.8,1405.7,29.8,1406.4z M29.5,1406.4c0-0.5-0.4-0.9-0.9-0.9c-0.5,0-0.9,0.4-0.9,0.9c0,0.5,0.4,0.9,0.9,0.9
				C29.1,1407.4,29.5,1406.9,29.5,1406.4"/>
			<path id="path3573" class="st92" d="M29.6,1406.4c0,0.6-0.5,1.1-1.1,1.1c-0.6,0-1.1-0.5-1.1-1.1s0.5-1.1,1.1-1.1
				C29.1,1405.3,29.6,1405.8,29.6,1406.4z M29.3,1406.4c0-0.4-0.4-0.8-0.8-0.8c-0.4,0-0.8,0.4-0.8,0.8c0,0.4,0.4,0.8,0.8,0.8
				C29,1407.2,29.3,1406.9,29.3,1406.4"/>
			<path id="path3575" class="st93" d="M29.5,1406.4c0,0.5-0.4,0.9-0.9,0.9c-0.5,0-0.9-0.4-0.9-0.9c0-0.5,0.4-0.9,0.9-0.9
				C29.1,1405.5,29.5,1405.9,29.5,1406.4z M29.2,1406.4c0-0.3-0.3-0.6-0.6-0.6c-0.3,0-0.6,0.3-0.6,0.6s0.3,0.6,0.6,0.6
				C28.9,1407.1,29.2,1406.8,29.2,1406.4"/>
			<path id="path3577" class="st94" d="M29.3,1406.4c0,0.4-0.4,0.8-0.8,0.8c-0.4,0-0.8-0.4-0.8-0.8c0-0.4,0.4-0.8,0.8-0.8
				C29,1405.6,29.3,1406,29.3,1406.4z M29,1406.4c0-0.3-0.2-0.5-0.5-0.5c-0.3,0-0.5,0.2-0.5,0.5c0,0.3,0.2,0.5,0.5,0.5
				C28.8,1406.9,29,1406.7,29,1406.4"/>
			<path id="path3579" class="st95" d="M29.2,1406.4c0,0.3-0.3,0.6-0.6,0.6c-0.3,0-0.6-0.3-0.6-0.6c0-0.3,0.3-0.6,0.6-0.6
				C28.9,1405.8,29.2,1406.1,29.2,1406.4z M28.9,1406.4c0-0.2-0.1-0.3-0.3-0.3c-0.2,0-0.3,0.1-0.3,0.3s0.1,0.3,0.3,0.3
				C28.7,1406.7,28.9,1406.6,28.9,1406.4"/>
			<path id="path3581" class="st96" d="M29,1406.4c0,0.3-0.2,0.5-0.5,0.5c-0.3,0-0.5-0.2-0.5-0.5c0-0.3,0.2-0.5,0.5-0.5
				C28.8,1406,29,1406.2,29,1406.4"/>
			<path id="path3583" class="st97" d="M28.9,1406.4c0,0.2-0.1,0.3-0.3,0.3c-0.2,0-0.3-0.1-0.3-0.3s0.1-0.3,0.3-0.3
				C28.7,1406.1,28.9,1406.3,28.9,1406.4"/>
			<path id="path3585" class="st98" d="M28.7,1406.4c0,0.1-0.1,0.2-0.2,0.2s-0.2-0.1-0.2-0.2c0-0.1,0.1-0.2,0.2-0.2
				S28.7,1406.3,28.7,1406.4"/>
		</g>
	</g>
</g>
</svg>
